<mxfile host="app.diagrams.net" modified="2024-06-16T18:22:28.273Z" agent="Mozilla/5.0 (Windows NT 10.0; Win64; x64) AppleWebKit/537.36 (KHTML, like Gecko) Chrome/126.0.0.0 Safari/537.36" etag="VheVpcfLe9zXmyHuz982" version="24.5.4" type="github">
  <diagram name="Page-1" id="drzAGrif8JlALYimPOJj">
    <mxGraphModel dx="1120" dy="426" grid="1" gridSize="10" guides="1" tooltips="1" connect="1" arrows="1" fold="1" page="1" pageScale="1" pageWidth="850" pageHeight="1100" math="0" shadow="0">
      <root>
        <mxCell id="0" />
        <mxCell id="1" parent="0" />
        <mxCell id="L0niOf5hIxPCRcP5DR97-22" value="" style="shape=stencil(dZBdDoMgEIRPs69myyb0AGrvYSKWTREM0r/bF7JNS1p9G4b52B2A2tUOiwGFa4rhYu48JgvUgVLsrYmcsgLqgdopRHOO4epHOS9DSRY1h1t54SHcAbFBLJjCp1gf4ySAY18Bf3GtG33cz28MqKw3ksV3wYmdk371/W+hbMlnUP8C);fillColor=none;labelBackgroundColor=none;sketch=1;curveFitting=1;jiggle=2;" parent="1" vertex="1">
          <mxGeometry x="267.4465439514545" y="135.39623332473468" width="0.10063507272009718" height="0.3018937020931604" as="geometry" />
        </mxCell>
        <mxCell id="QkLOHfmELqgNpAeMyZu8-1" value="" style="shape=stencil(lZHBCsMgEES/Zq9hs4uUntP0PwIxUWo1GNu0f1/FQ4oBIbdxfTPiDnC3qmGRQLgG7x5y02NQwDcg0lZJr0NUwD1wNzkvZ+9edsznZUhkUk/3Tgmf7MMGMZkIv8XgnnGjbQ2/Nswn8Faci4/5osKTKA0CqwZxeOFCVUOLxz9guaMo9v1O2phcz/992Ucc5S65/wE=);fillColor=none;labelBackgroundColor=none;sketch=1;curveFitting=1;jiggle=2;" parent="1" vertex="1">
          <mxGeometry x="9.482753008261511" y="5.816088446255392" width="0.1839122552981322" height="9.195402298850576" as="geometry" />
        </mxCell>
        <mxCell id="QkLOHfmELqgNpAeMyZu8-2" value="" style="shape=stencil(lZPdTsMwDIWfJrdHThzn53qM95i0jkaUduoKbG9PSzRoQA3iznHOF8cnseLdpT2cG2XoMo3Dc/OejlOr+EEZk/q2GdM0R4r3inenYWyexuG1P+b1+bAol+hleFtOuGZODMQtlKFbzhCIPhOPWd+lfqXXARwKvQXpil5DbKHXArLbwFf5u54dKG7rBZoLvWNoV7mQR5QCCAJf6YADbOmQprpH7nfPfxCB4H1BREIM20C0CCXgBbFi6+oGd0ICnFRKMCSWLz17XTHKO0Tzr6dzsLoEGFTp2kTYWAfm4Purn1LX5UlZ7/8cjTmVx4r3Hw==);fillColor=none;labelBackgroundColor=none;sketch=1;curveFitting=1;jiggle=2;" parent="1" vertex="1">
          <mxGeometry x="12.747123630567557" y="8.758617883441104" width="3.586204791891164" height="6.114943931842673" as="geometry" />
        </mxCell>
        <mxCell id="QkLOHfmELqgNpAeMyZu8-3" value="" style="shape=stencil(rVbLcsIwDPyaXHdkW36dafsfzAAlUwoM0Nff1zTQopgoMNOb4+zKlrSS3LjJfjndzhtL+8Nu8zL/aGeHZeMeGmvb9XK+aw9l1bjHxk0Wm938ebd5W8+67+30iDyuXjfvRwufHc94hHBkWfo67Thk/7Pz1BFW7fqCEBGcwDsYGoZ7sO3BOQ/DDSwJuId1w3ACSbhJCMptKvMunN25incgI6/jkcwwnpGkt9EixGF8AEl8ItV+jS/R5/+030vuyP0zAgt8MGo8a7VxVA+wFinLjDlEq2SMYKTLJYlJCZFjZOmDiWCNEBC9JDC8JqII1yNYRKUIrhAIrESpJiRVFjVel3WN16v4igMw4R78b2EP4bPEM0iLTz4ff2MGmJAloZSG5gEXe1HeyKoq4qKZdFdr8YiSEMqOEiQOyLJ0ooHXTiii6REsSItSBst2GvT266v+O9IvfN2ALbLig6/mTYmbU8aZzyBZ/kUsWjWXqJOUxsgMiXxO042E5OHllbjELSlduNaSQVTEZ6ganCEgKfq+whgZPTnCSzVd2DgxyuLvXbJoV6vuWXP5v/+OKVvdG8g9fgM=);fillColor=none;labelBackgroundColor=none;sketch=1;curveFitting=1;jiggle=2;" parent="1" vertex="1">
          <mxGeometry x="19.873560412176744" y="4.528735982960683" width="7.632183206492457" height="7.908042820020654" as="geometry" />
        </mxCell>
        <mxCell id="QkLOHfmELqgNpAeMyZu8-4" value="" style="shape=stencil(lZPRbsMgDEW/htcrg4HAc9f+R6WmDVqWVGnabX8/MqQ13lqkvTn2PdjgG8WbS7c/t8rQZZ7G1/Y9HeZO8YsyJg1dO6U5R4q3ijfHcWpP03gdDuX7vF+US/Q23pYTPgqniUC0YIY+S4pB+juxK0CfhhUQHWwQ+p8DHustqBH6Bs5U9BqOhT434FoDgpcDcURwz4GQy7KDZ2hfARqYKICgYSoj5TJ7AURGDM+BJl/RCmC1l4eEM3CSiBGmcmvOa3X/mUl7aGmMwLCVZ3IguQcfESub/mM8Z6HtWp+Du2+Pqe+L7df13z7PqfKP8PYL);fillColor=none;labelBackgroundColor=none;sketch=1;curveFitting=1;jiggle=2;" parent="1" vertex="1">
          <mxGeometry x="29.80459419338183" y="8.758620221952839" width="5.425285251661279" height="6.114941593330948" as="geometry" />
        </mxCell>
        <mxCell id="QkLOHfmELqgNpAeMyZu8-5" value="" style="shape=stencil(fZHNDoMgEISfhutmWRThbO17mIiV1IpB+/f2lZC0YqO3ZeBjMzNMlFNXj4YRTrN3V/O0zdwxcWJEduiMt/MyMVExUbbOm4t396GJ57EOL8N0c4/wwytyCIgBInxHgeNXOkegt8MK4BlonhCFAp3vA6SAdAJIAVzuAzmClAkgJKhsHygESJWaON6gFChKgGPPWkKx8QxKH2SEf7ESB0xCWoZfJ63t+1jp+n7b4SLF/kX1AQ==);fillColor=none;labelBackgroundColor=none;sketch=1;curveFitting=1;jiggle=2;" parent="1" vertex="1">
          <mxGeometry x="31.919536020563953" y="5.908044573904462" width="6.988504344019397" height="1.7471278398886496" as="geometry" />
        </mxCell>
        <mxCell id="QkLOHfmELqgNpAeMyZu8-6" value="" style="shape=stencil(lVbLbhsxDPyavRJ6UCJ1TtP/CBCnXtS1A8d9/X213axrifEIvclrUhQ5wyGn+PC2f3rdTcG9Xc6nr7uf8/NlP8VPUwjzcb87z5d6muLjFB9eTufdl/Pp+/F5/f36tFgup2+nH8sNv1a/QDEtTsH9fv8QiP3fL59X+8N8vLF35Fxr78j/l32koMg+lMY+enLxvn0glxt7TpTLfXvestvsc71B7ttnkvZ+EUrg/kI+NPYqVMD7vUlAC+UMHNIW/+rgqThQIQNBFgoMHCJpm0O6XvGxQyaWFjSBRQ3SJx0rLoAVwSTNkTx6ks2h4AimEaRCH2CE9yJuDsVTRBEMlbzDdY3mTaXSCyAXtc+6OEogCTbtILj9WfusKzcU0JVNQ0RMVxvBKxVAJs7ktXVg2EFsuFEjIDJxoNyJJBYB68CYG/VJKbZlVcoIuNQ3tTCkhq2SRhzB0FUzBUQN6dmqdTQg4KoytkjnQgq0MpnhkDIcDol78lVkkPQtItH2w4CtmUlah4BlIxt6DyKIke/BhKtF7J6UExQB66BYjcX3XCoCVUMMWwdCVpmjHVvxVFRDvoxVoxhtHZS1GKkMuOOKGRCyddTHKRgY8HRQU1SmCEBQg9pAWMU8iPE0sREGzFOzOAx2GYvaYOjejNirB3ciUw//tuOX+XBYl+vb//ttun5aN/H4+Ac=);fillColor=none;labelBackgroundColor=none;sketch=1;curveFitting=1;jiggle=2;" parent="1" vertex="1">
          <mxGeometry x="37.9885036424659" y="9.770114240975232" width="15.632180400278378" height="5.333334385663614" as="geometry" />
        </mxCell>
        <mxCell id="QkLOHfmELqgNpAeMyZu8-7" value="" style="shape=stencil(rVPRbsMgDPwaXi2wwYbnrvuPSk0XtCyp0mxr/37JULrQpkyT9mbMHfadsaLNqd4dK4X6NPTda/UZ90Ot6Ekhxrau+jiMkaKtos2h66uXvntv9+l83E3IKXrrPqYXzomnQeuJhPqSEsgg/J15Tvgmtgs8guR4Q8DmMd5o8CYjeLCu8L4Fwgx/7XAVbxn4L3gWcJLhA/iCXm/Bcm6QByOPCeGuIYdgig7dzUAI0BZKWHAh91Rm19ZF0NzBVbQDKYhgBp9XCH6uuT4GgZDbupC1yiB3+zF+Y4yTEvp3xhj87MYhNk1areX97S6NqbSHtP0C);fillColor=none;labelBackgroundColor=none;sketch=1;curveFitting=1;jiggle=2;" parent="1" vertex="1">
          <mxGeometry x="22.724133721713372" y="26.827584803789534" width="6.804595596488865" height="3.2643706223060347" as="geometry" />
        </mxCell>
        <mxCell id="QkLOHfmELqgNpAeMyZu8-8" value="" style="shape=stencil(fZLdbsIwDIWfJreWY+fHuWbwHkgUGq1rUSlse/u1i8YaArlznO9Y8clRvLm0+3OjCC/TOLw3n/EwtYrfFFHs22aM01wp3ireHIexOY3DtT+k83m/kEv1MdyWCV9Jh4C4iAi/U8MB+t/GLuFd7Fe4DoA24+8DnvKkwfAD70KFF7A+4wVC5T1sweuMnxdg81pgCMRlAiNA8lpgC4e8/hvxXOBBm3wFD7ayszNAIRMEVzXJF6ZqrH+DL2wNUrUpFDYFA44qwcDCJxEQXivm4j+Gx9h1KcXr+8fYzq0Ued7+AA==);fillColor=none;labelBackgroundColor=none;sketch=1;curveFitting=1;jiggle=2;" parent="1" vertex="1">
          <mxGeometry x="24.37930894172058" y="26.47509391463126" width="0.6436753547054598" height="11.11111052648317" as="geometry" />
        </mxCell>
        <mxCell id="QkLOHfmELqgNpAeMyZu8-9" value="" style="shape=stencil(fVTLcoMwDPwarjuy5ec5Tf8jMyGFKYUMoa+/r6mHtCLgmxC7llZrq+LDrTld60rTbRqH1/qzPU9NxU+V1m3f1GM7pajiY8WHyzDWL+Pw3p/z9/U0I+fobfiYT/jKPALRTNL0nRNKwYTfzHPGd21fwnso2odbKBbwCNL7cGWW0+7tMCLvE1J56wQhlTRqn2A0ohWElHGFlqyBiYJgI4LZJziNoOWIHHRBg/NgJQghgksVHgjRwRc0OANv5FjpbuS26gBeGZcmXejJpJalEZGgXIFA4CBV01Jzk8C8bslFOF8gaJC0OqnSBdEc17fPWFDhMViFKK1mBWULRgRYeZlUABVEBwstx+qXsW0/IHp4oGujU/C3DC5t1+Vd8v//enmkVF48fPwB);fillColor=none;labelBackgroundColor=none;sketch=1;curveFitting=1;jiggle=2;" parent="1" vertex="1">
          <mxGeometry x="28.97700775263411" y="34.045974205280174" width="7.17241893782928" height="5.609204522494612" as="geometry" />
        </mxCell>
        <mxCell id="QkLOHfmELqgNpAeMyZu8-10" value="" style="shape=stencil(lVTbTsMwDP2avB4lTpzL8xj/MWkdrSjt1BXY/p6WqFAXNRJvjn2O7RPHUfZwq0/XSpG+jUP/Wn0257FW9kkRNV1dDc04WcoelT1c+qF6Gfr37pzP19OMnK23/mPOcM885xHDzCL9yB7jEM235zkT2qZbEwwsCYJGSvt46+H8Bq/1Pp54CS94QvL7eGPBTgoICLEgAEYKthFM+3i97ceXG2KQEfhIoEJ+4+FlQ4nBhQKW4eQEjC7fKQdQkiXKQw4BOkoRBq5wqYkQpGpfJqxa/plDAhVkp4AkZVO5RExgKSLB2/+IdnBuH+95SbfgGaawCfznZQQ4MYTJ+N3TS9O2ec3X8e1eT678J9jjFw==);fillColor=none;labelBackgroundColor=none;sketch=1;curveFitting=1;jiggle=2;" parent="1" vertex="1">
          <mxGeometry x="42.33333672417535" y="30.444447835286468" width="4.266665988498264" height="5.999998304578993" as="geometry" />
        </mxCell>
        <mxCell id="QkLOHfmELqgNpAeMyZu8-11" value="" style="shape=stencil(lZTbboMwDIafhttfsZ3jdde9R6XSgcZKRdnp7QdCdLgaWblzkv9LfIoL2V2rw6Us2Fz7rn0tP+tjXxXyVDDX56rs6n6wCtkXsju1XfnSte/n47S+HEblaL21H+MNXxNnYMwIsfm+23ie5E19XsgjvGyQkwPRBj17eFZ6QnDremvASek9yK7rHcFEfb+AfAYIcE4BzIiUASI4KEAsOAcQoq6A9bBpHZCIqF3yBk4ySbWwXgHBwmWCJgbrKkeHlAEsRFctCWJGL/A65BQgYV2fIDrilECciZgh+gEy+cazQ2PQJsILhLY4FRlBZzXlC53snPQH07pw+Ubw/AH/fiLOjXADaK79oz79Axh4lwcG43c6neqmmYbb8vx+mg1b0ySU/Q8=);fillColor=none;labelBackgroundColor=none;sketch=1;curveFitting=1;jiggle=2;" parent="1" vertex="1">
          <mxGeometry x="48.600002712673586" y="30.622226291232636" width="6.17777845594618" height="5.066663953993055" as="geometry" />
        </mxCell>
        <mxCell id="QkLOHfmELqgNpAeMyZu8-12" value="" style="shape=stencil(lZPbbsMgDIafhlsL2wHDdde9R6WmC1qWVGm6w9uPCK2L2wVpd8b8nw0+GN5dusO5NWQv8zS+th/pOHeGnwxRGrp2SnO2DO8N707j1L5M43U4lvP5sCgX6218XyJ8Fg6tBWsXjOxXcd0czwXo07ACRMDiP/RegBqlZ5BmW9848FHpEUH8NkABGqcAyiFkG0ACKwrIOWOsACCk9N4D47b+oaKBIVZ+4AD1e6IHqugxAOoEqy7+SbAD1k2IuWoVwBE43YXIYF2lzQ9vCg5c5RPi76sqAXylqoF+xuAGIHiVIRu/c35KfV/WZH1/vxfZVXaK998=);fillColor=none;labelBackgroundColor=none;sketch=1;curveFitting=1;jiggle=2;" parent="1" vertex="1">
          <mxGeometry x="75.977783203125" y="31.333333333333343" width="5.155558268229167" height="8.311116536458334" as="geometry" />
        </mxCell>
        <mxCell id="QkLOHfmELqgNpAeMyZu8-13" value="" style="shape=stencil(hZPdTsMwDIWfJrdHiZ2/Xo/xHpPW0YjSTl2B7e1pFCHqsaV3ju0vsn1sxbtLdzi3ivRlnsb39jsd507xiyJKQ9dOaV4sxXvFu9M4tW/T+Dkcy/t8yJnZ+hi/8g/XwhmtoXXGSN+Kywa44nktRJ+GFREtohEAaUR+DoSAHFsBxoPcc8A1sI0A3G+ND/OtQQgiv/4/EUKUBUWEChDg5Yi4nv9vpJ6r+QYk64/1hg3BewE0dc2ogZGarXR/PNMII3uI9Z49QbMAgqmq4Bt4uRZ2Q4VlzeRabOyFj2Anu94oycLJud4PaTH+LumU+r4c4jp+f3mLq1wt738A);fillColor=none;labelBackgroundColor=none;sketch=1;curveFitting=1;jiggle=2;" parent="1" vertex="1">
          <mxGeometry x="81" y="36.04444715711804" width="3.5111083984375" height="3.5555555555555554" as="geometry" />
        </mxCell>
        <mxCell id="QkLOHfmELqgNpAeMyZu8-14" value="" style="shape=stencil(lZTdbsIwDIWfprdHiZ0f55pt74FEGdUYRYX9vf3SVTBMwRJ3aeovOcd23PDisFnu24bc4Tj0b+1XtzpuGn5qiLrdph26Y101/NzwYt0P7evQf+xW0/d+OUaOq/f+czzhe+ISI8SRIvcz7eSIJH87LxOw7XYXQBSIBlKCywbAyEUDjJLuA2EmKTmwAVBBShogeAPwET5rQBAMDwE+6CRlBCNJDs6peEkI5YHzC4OCYaCAvQY8xLpgrqiWxXBQU5501bIDGSnKM0nRg+N9oCrOpAAmBDYAQdJArWM2JHk3cx3gLEkRohvpfMDNeBEU3UeMZMXT6aWcHSQQPZJUZrCRI5mVrT4/b1iukrK2nOlk6jYQIKw7KYON1pOIeFU2d53WuvgfUOtuu53m2+X/64FWt6ZhyM+/);fillColor=none;labelBackgroundColor=none;sketch=1;curveFitting=1;jiggle=2;" parent="1" vertex="1">
          <mxGeometry x="84.86666531032984" y="30.26666937934027" width="6.444447835286458" height="9.866668701171875" as="geometry" />
        </mxCell>
        <mxCell id="QkLOHfmELqgNpAeMyZu8-15" value="" style="shape=stencil(lZPdboMwDIWfJreWfxKSXHfde1QqHWgMKkq39e0Ly9BwC0zcOba/JMdHNrK7FIdzbhgvXdu851/lsSuMvBjmsi7ytuz6yMjeyO7UtPlb21zrYzqfD0PnEH00n8MN34kjBKKBYryljLOA/ifzmoCqrCcAMxBuAYTAZhpgcHEZcAhOAzYAuWXAI/iogT5jl4EQIWhAEGRFAyECatXkwYdlIvZlpwAPlla+JKPEsX9dgovgHvt/fzjvgoDXPodxBvOKGUSb8A/wNCAnILKh368PlAjYKiBmIGuKHUStYOLiLJExRN7yxLPJwQGpIfXB3+qdyqpKmzutP65qn0prLvs7);fillColor=none;labelBackgroundColor=none;sketch=1;curveFitting=1;jiggle=2;" parent="1" vertex="1">
          <mxGeometry x="92.46666802300348" y="35.02222357855902" width="3.9555562337239585" height="6.000001695421007" as="geometry" />
        </mxCell>
        <mxCell id="QkLOHfmELqgNpAeMyZu8-16" value="" style="shape=stencil(jZPdbsMgDIWfhtsjbEOA6657j0pNF7QsqdLs7+2XjHULkUC7M+Y7xgeMksOtO11bxfo2T+Nz+x7Pc6fkQTHHoWunOC+RkqOSw2Wc2qdpfB3OaX09reQavYxva4WPpDMerllVrD9TRkPr78Rj4vs4bHgWGM54gaUyTw6S1ycNK2WBQch5dqBQ5jW8ZLwJIK7xP/buvCOEaj+U1w8ErvBk4fTOcP1Khe8F/6uwDO3yphhUeYXF407gPIItC7yB5C4aA23KgiCQkAls3cPG4+8kNfDZEUvwN7eX2Pdp7Lf7+zlfUumPyPEL);fillColor=none;labelBackgroundColor=none;sketch=1;curveFitting=1;jiggle=2;" parent="1" vertex="1">
          <mxGeometry x="105.53333536783856" y="35.77777777777777" width="5.377777099609375" height="5.066677517361111" as="geometry" />
        </mxCell>
        <mxCell id="QkLOHfmELqgNpAeMyZu8-17" value="" style="shape=stencil(jVfRchshDPyae9UAAgHPafofmYlTe+raGcdpm7+Prjd3sXTNXt7OeAXsaiVg4LuX/cPzbkjh5Xo5/9z9OTxe9wN/G1I6nPa7y+GqXwPfD3z3dL7sflzOr6fH6ffzw4gcv36df48z/J3iAoUwBqXwNg2UTNL/jXyf8MfD6QZfKXeDz4kiwHeq2eC5UM+f42OmxCYgMdUCAoRaMQExUQkgoJJYypix4nsz+EWzz/COQSCOAF+oWnwhSQDPlO1+4gaBQDFaSRtlkAPxOctY0SVBX/RQnGeb8cIUGeFjsnhVCODTrN/N/MhCxeML1qcTi8UrI4EZcwnIm5ZzFmJdswHGWoRWUhZKgLLWcbWcGWvKmbIlzRUWfg6UrSt0BK2gmnRnO4Gy5uoDSqIGKi13Ci5xONEa0GziBFeCbsCtILg9FqHY/JaQVyVSTp40WkGEpFpZGZKu2t5WLRslTjqJJa0Vguy93pLaEck6ql78CqgeVMRgA9S/MECo24rb6Hmjc1zXxsfCmkPBJ6E06tZ8BZOuxedhw95N+5LbErZG61RcIyuQdF9UX/KAW3Gv/j6SNu4XS59bTkPMoTMlq1KFTUM5R1sOeuGoAF+I7Q0p4vN/nYXY5gPv/wGJsmv2WKN1wEcn/GKA4GavAcF2pbbhpFVAxwWq85XkZMUF1zRPNhEdt6We5lvI7Z5AqtWszt0Nl8PNlhfzbdRD83vauMusSWhra1jY7l4AeIWaKYoPsLnWj4/3xtPheJyeK7f/+/eJDk1vG75/Bw==);fillColor=none;labelBackgroundColor=none;sketch=1;curveFitting=1;jiggle=2;" parent="1" vertex="1">
          <mxGeometry x="111.35556369357641" y="31.555557250976562" width="11.866658528645834" height="14.222222222222221" as="geometry" />
        </mxCell>
        <mxCell id="QkLOHfmELqgNpAeMyZu8-18" value="" style="shape=stencil(fZHdEoIgEIWfhltm3Q3w3uw9nBGTycRB+3v7IJryp7hbDueD3T2MirGtBs0QxsnZk76ZemoZ7Rmi6VvtzOQrRiWjorFOH5299HU8D1Vwhupsr+GFe+QyAA4QMIRHlAQnegmHCHSmTwMf4SeQKy6W/pxL9d8vc67Ewo+YBMSmoZ1MduQnXAEKkj9kuBlBJZe06Wi2tTfgi28mjem6GOn8fp2hl2L+VD4B);fillColor=none;strokeColor=#00CC00;sketch=1;hachureGap=4;jiggle=2;curveFitting=1;fontFamily=Architects Daughter;fontSource=https%3A%2F%2Ffonts.googleapis.com%2Fcss%3Ffamily%3DArchitects%2BDaughter;" parent="1" vertex="1">
          <mxGeometry x="26.044943820224717" y="57.8988736613413" width="0.7191038667485955" height="6.741573033707865" as="geometry" />
        </mxCell>
        <mxCell id="QkLOHfmELqgNpAeMyZu8-19" value="" style="shape=stencil(lZLNDoMgEISfhutmYUHwbNv3MBErqRWD9u/tKyFp1UaT3oaBb5PZgVExNGVvmcBhDP5iH64aG0YHJoTrGhvcOClGR0ZF7YM9B3/rqnTuy/gyqqu/xwnPxCEgRkjgKxkcP9YpAa3rZoAGyf8CuAI0C8JIyMQ2QAi5WgAZByW3AYWg8wUwjdB6JwMHSQtgP4LRQKstKSCzkxl/9koGZDYnJvEtpXZtmzqd369LnKz0Aej4Bg==);fillColor=none;strokeColor=#00CC00;sketch=1;hachureGap=4;jiggle=2;curveFitting=1;fontFamily=Architects Daughter;fontSource=https%3A%2F%2Ffonts.googleapis.com%2Fcss%3Ffamily%3DArchitects%2BDaughter;" parent="1" vertex="1">
          <mxGeometry x="23.348314606741553" y="58.573030964712075" width="5.662924091467697" height="0.5842710344978932" as="geometry" />
        </mxCell>
        <mxCell id="QkLOHfmELqgNpAeMyZu8-20" value="" style="shape=stencil(lZHdDoMgDIWfhtsGWpF57dx7mIiDzIlB9/f2k5Bt6DKT3R1O+WjLYVSOph40Qz5O3p30zTaTYbRniLY32ttpVowqRmXrvD56d+mbeB7qcDOos7uGF+6R48B5gJA/oiH42zpEoLN9AuSQq78AkQEWC6IgUPI3QF8z7QTgBiARRLYAcgS5MZKS6w603SHZ8UWsl57F549b23UxorS+zmS2Yp5UPQE=);fillColor=none;strokeColor=#00CC00;sketch=1;hachureGap=4;jiggle=2;curveFitting=1;fontFamily=Architects Daughter;fontSource=https%3A%2F%2Ffonts.googleapis.com%2Fcss%3Ffamily%3DArchitects%2BDaughter;" parent="1" vertex="1">
          <mxGeometry x="22.269665664501417" y="65.62921279735778" width="6.2921348314606735" height="0.7191004378072331" as="geometry" />
        </mxCell>
        <mxCell id="QkLOHfmELqgNpAeMyZu8-21" value="" style="shape=stencil(fZFJEoMgEEVPw7aLSYa1MfewSoxUjFhqptsHigyQRHef3/1o6I9YOXf1aBDF8zK5o7naZukQ2yFK7dCZyS5eIVYhVrZuMofJnYcmnsc6dAZ1cpdwwy1yBGPAOGAU36P1NvYR6O2QAFICVlk/UcCKdUBI0DIDqALO1wGuIdQSgEuQZB1gFBTJACFeM/8C/sWyyABFQGz8QUGhs35NgW4s6WenyZqfgBefTFrb9zHStP6dobdi/qx6AA==);fillColor=none;strokeColor=#00CC00;sketch=1;hachureGap=4;jiggle=2;curveFitting=1;fontFamily=Architects Daughter;fontSource=https%3A%2F%2Ffonts.googleapis.com%2Fcss%3Ffamily%3DArchitects%2BDaughter;" parent="1" vertex="1">
          <mxGeometry x="28.741573033707823" y="58.79775006583566" width="5.75281036034059" height="9.797754180565308" as="geometry" />
        </mxCell>
        <mxCell id="QkLOHfmELqgNpAeMyZu8-22" value="" style="shape=stencil(ddFLDoMgEAbg07CdwEwBXVt7DxOxkloxSF+3r4Sm1Rp2wzAfkB9G1dw3k2HI5+DdxTxsG3pGR4Zox954G5aKUc2o6pw3Z+9uY5vWUxMnY3V193jCMznBOXAeGfJXan0bpwQGO66AQijVZh4JNOWB3F1AEmSZB6hBFxsgCzjoPBAChNgAXYJSebB70SqFD1iKX2SdHYaU+Hr/P+Kllb6H6jc=);fillColor=none;strokeColor=#00CC00;sketch=1;hachureGap=4;jiggle=2;curveFitting=1;fontFamily=Architects Daughter;fontSource=https%3A%2F%2Ffonts.googleapis.com%2Fcss%3Ffamily%3DArchitects%2BDaughter;" parent="1" vertex="1">
          <mxGeometry x="34.044945191801276" y="61.674158674947336" width="0.8089901356214887" height="5.3033653002106735" as="geometry" />
        </mxCell>
        <mxCell id="QkLOHfmELqgNpAeMyZu8-23" value="" style="shape=stencil(hZPLEsIgDEW/hm0GEhro2sd/dMZqGWvr1Pr6e6k4aqnFXQj3QHIhghanqjiWAuWp79p9eXWbvhK0FIiuqcrO9T4StBK02LZduevac7MJ62MxKIfo0F6GE26BwwxYDhTK+ytDkOtnZh2A2jXfAIE2I0BpyLIEMLlBIbCdB0gBjgEDMlGRpliPYHFezxLkWP9O/NQbEzeQ1ueT+jUgzeuVnBT0x6GcwUYdMxieB6yOAW8aJwBm0GOAFeQm8QgYA8aCTQDexKgk71vqH01NkvE7+ODzz7eursOYfO/Hc+FTYaZo9QA=);fillColor=none;strokeColor=#00CC00;sketch=1;hachureGap=4;jiggle=2;curveFitting=1;fontFamily=Architects Daughter;fontSource=https%3A%2F%2Ffonts.googleapis.com%2Fcss%3Ffamily%3DArchitects%2BDaughter;" parent="1" vertex="1">
          <mxGeometry x="34.49438339404844" y="60.73033570707514" width="5.617979242560569" height="3.1910105501667836" as="geometry" />
        </mxCell>
        <mxCell id="QkLOHfmELqgNpAeMyZu8-24" value="" style="shape=stencil(fVPZcsMwCPwavTIIdD6n6X9kJk7tqWtnHKfH31euegSn5g2hXbGLwPDu0h7OjSG8zNP43Lx1x7k1/GCIuqFtpm4ukeG94d1pnJqnabwOx3o+HxbkEr2Mr8sL75VnEQFxoRF+1JQHZ78Sj5XQd8MNITJEL/C/D/yL9xkwCLwD9Nt4ZsAo8BYhKYKsBSRBoACsVLgz7AIE0vAxC3xIkBV8EfSt94eQIiS3TaAMlgUhZ2ClgkfgvOqR/guxXKe1Jhu2CckDurVrUkxkB05qch4oKoQIQVYok6G5vq9QJsMqkopFJ3+6JFhpUoQsRzuDEz0qwd8inbq+r3t4e79evJKqS8v7Tw==);fillColor=none;strokeColor=#00CC00;sketch=1;hachureGap=4;jiggle=2;curveFitting=1;fontFamily=Architects Daughter;fontSource=https%3A%2F%2Ffonts.googleapis.com%2Fcss%3Ffamily%3DArchitects%2BDaughter;" parent="1" vertex="1">
          <mxGeometry x="71.03370889385093" y="58.07865077100891" width="5.707872369316187" height="6.651685621854509" as="geometry" />
        </mxCell>
        <mxCell id="QkLOHfmELqgNpAeMyZu8-25" value="" style="shape=stencil(fZLdEoIgEIWfhtsdWAjw2uo9nBGTycRR+3v7YOhHrLhblvNxYA+El1NbDYYgnebRHc3V1nNL+JYg2r41o519RfiO8LJxozmM7tzXcT1UQRmqk7uEE26RY5QCpQFDeo+td2Mfgc72C0BLKORKLzGjF6B0oueA4r9eSaBFomf4cvwJSA0iNUCdddgokCwBhALMPEEw4OmIvCfNXAkZKJEAYQoZh68MFrE8AV98Mmxs18UvsNxfZ+5b8b/w3QM=);fillColor=none;strokeColor=#00CC00;sketch=1;hachureGap=4;jiggle=2;curveFitting=1;fontFamily=Architects Daughter;fontSource=https%3A%2F%2Ffonts.googleapis.com%2Fcss%3Ffamily%3DArchitects%2BDaughter;" parent="1" vertex="1">
          <mxGeometry x="78.35955467652735" y="57.71910112359549" width="4.134830089097612" height="9.707864482751052" as="geometry" />
        </mxCell>
        <mxCell id="QkLOHfmELqgNpAeMyZu8-26" value="" style="shape=stencil(fZHdDoMgDIWfhtsGqPx47bb3MFEnmROD7u/tB2FuMqN3h/Z8Je0hWIxtOdSE03Fy9lI/TDW1BA+Ec9O3tTOTVwSPBIvGuvrs7K2v4nsogzOoq72HCc/IMUqB0oBx+oqlb+EUgc70C0AyEFniZxK03AbE6gOeA7JtgEvIeQL4EUJtA0wA6gRQFGS+Dai5O/u1AtxZAUGLxJ8LyHZutNp4ceUP4MUvksZ0XUx02f+P0Jdi/Hh8Aw==);fillColor=none;strokeColor=#00CC00;sketch=1;hachureGap=4;jiggle=2;curveFitting=1;fontFamily=Architects Daughter;fontSource=https%3A%2F%2Ffonts.googleapis.com%2Fcss%3Ffamily%3DArchitects%2BDaughter;" parent="1" vertex="1">
          <mxGeometry x="83.03371609462778" y="59.87640586595856" width="2.3370704222261236" height="7.820221975948034" as="geometry" />
        </mxCell>
        <mxCell id="QkLOHfmELqgNpAeMyZu8-27" value="" style="shape=stencil(lZPdbsIwDIWfJrdHiZ3fa8beA4myRutaVDp+3n7pMqAZI9LuXPd8do7jCF4d2s2+ESQP0zi8N6e4nVrBL4Io9m0zxilFgteCV7thbN7G4bPf5u/9ZlbO0cdwnCucM6ccrJkpkpecYQbzd+Y1A13sFwBpKF8ApMDuOXCvdwWUAfvngJGQsgAMVOVETsKEQn8r8KfeO5D5hz54SF3oPULFsJIPBoghK45DmimVlxDgdMWyhy5naupnMhbeFoAzsJUOrMGqNJ162oprDVcCwUFXOjwMaTG3HyAF973dxa7La7/8/3vPUyq/EV5/AQ==);fillColor=none;strokeColor=#00CC00;sketch=1;hachureGap=4;jiggle=2;curveFitting=1;fontFamily=Architects Daughter;fontSource=https%3A%2F%2Ffonts.googleapis.com%2Fcss%3Ffamily%3DArchitects%2BDaughter;" parent="1" vertex="1">
          <mxGeometry x="84.74157577686094" y="59.24718998255355" width="4.584271720286165" height="3.5056176346339534" as="geometry" />
        </mxCell>
        <mxCell id="QkLOHfmELqgNpAeMyZu8-28" value="" style="shape=stencil(lVXLcsIwDPyaXHcsy/LjTOl/MEMomVLCBPr6+zrNhKIQPM3NsXctaeVVKl6d95tTXVlzvnTta/3ZbC/7ip8qa5vjvu6aS15VvK54tWu7+qVr34/b4fu06ZH96q396G/4GnjWw6SeZc33sEMJln53ngfCoTneENgjiiIEBH6MdwwXFV7A5jFeBFbjDUwB7wXRLcAHAXmFZ3Ch3mhAVgtEsL5AICStqKVRsvmMEsTojBghFAgOworgHLhA8LlFOoIQfKEGT3C6htwWX+iyRPCE4JAKKUka7/tvSoyk34UL8LGgkkGkJSqFiDiJIDCFoqMg0JKUkoXIkqJTgOjHl4VO7jGBzPX1jwyfDZsKISJI+yf40SHzhBxBGyheZ8i8rh5Op5Sy5Qoy3Y+AnGRJ1+wX0TXc6DCvk0wtlKXmgkndeHrF0/jiZ/F3bYgWQZWQF39DedccDsNMvz2fDvG8NfwAeP0D);fillColor=none;strokeColor=#00CC00;sketch=1;hachureGap=4;jiggle=2;curveFitting=1;fontFamily=Architects Daughter;fontSource=https%3A%2F%2Ffonts.googleapis.com%2Fcss%3Ffamily%3DArchitects%2BDaughter;" parent="1" vertex="1">
          <mxGeometry x="21.820224033312854" y="82.48314881056882" width="7.235956084862184" height="6.786512739202949" as="geometry" />
        </mxCell>
        <mxCell id="QkLOHfmELqgNpAeMyZu8-29" value="" style="shape=stencil(lZHdDsIgDIWfhtsG6EC8nvM9low54hwLw7+3d4jR4dwS78rp+dqGQzAfmrLXhNPBO3vUV1P5huCOcG66Rjvjx4pgQTCvrdMHZ89dFd99GZyhOtlLmHCLHFPAVKA4vUeFS9jIp7KPQGu6CUCB0tQPKJbtGQiR2Blk7A/7e91P+/x6xkGqlfkCsnQBKqC4DEgBW5YAUgJfO4nOfmgivZCx+ARSm7aNeU773wGOUgwfiwc=);fillColor=none;strokeColor=#00CC00;sketch=1;hachureGap=4;jiggle=2;curveFitting=1;fontFamily=Architects Daughter;fontSource=https%3A%2F%2Ffonts.googleapis.com%2Fcss%3Ffamily%3DArchitects%2BDaughter;" parent="1" vertex="1">
          <mxGeometry x="21.882795955671952" y="95.73626608376975" width="0.6446899861206336" height="3.1208834805331387" as="geometry" />
        </mxCell>
        <mxCell id="QkLOHfmELqgNpAeMyZu8-30" value="" style="shape=stencil(fZHLDsIgEEW/hi2ZDoayr/U/mpQKEaGh+Pp7QXygxO4ulzN3hoGwblHDLAnCErw7yIsegyJsSxC1VdLrEBVhPWHd5Lzce3eyYz7PQyKTOrpzSrjmug1SwVMVwi07QAEexi7zRtuSp+03jpzy9j//TnvxTKzmVzxv1uep5hfrD2igalFYz5IoPgubtDF53+X974KjlT+H9Xc=);fillColor=none;strokeColor=#00CC00;sketch=1;hachureGap=4;jiggle=2;curveFitting=1;fontFamily=Architects Daughter;fontSource=https%3A%2F%2Ffonts.googleapis.com%2Fcss%3Ffamily%3DArchitects%2BDaughter;" parent="1" vertex="1">
          <mxGeometry x="31.362650106241404" y="94.10988876845812" width="0.30769096626030223" height="4.395604395604396" as="geometry" />
        </mxCell>
        <mxCell id="QkLOHfmELqgNpAeMyZu8-31" value="" style="shape=stencil(lZHbDoMgEES/htcNd/DZ2v8wESupFYP29veVUFtpq0nfhmEOZHcQy4em7A2ieBi9O5qrrcYGsR2i1HaN8XacFGIFYnntvDl4d+6qeO7LkAzq5C7hhVvkCMaAccAovkfrZewj0NpuAXANiiZ5woFn6wDTwGUCUD47PwEigOkE4AS0WAcUyCzJiwyU/iOvJEi2McH8+5zXGsTGxF8bXSz5CUzi3Uht2zYWurz/bHCyYvuseAA=);fillColor=none;strokeColor=#00CC00;sketch=1;hachureGap=4;jiggle=2;curveFitting=1;fontFamily=Architects Daughter;fontSource=https%3A%2F%2Ffonts.googleapis.com%2Fcss%3Ffamily%3DArchitects%2BDaughter;" parent="1" vertex="1">
          <mxGeometry x="39.49451823810955" y="93.75824578253778" width="1.14285647214114" height="8.087909405048077" as="geometry" />
        </mxCell>
        <mxCell id="QkLOHfmELqgNpAeMyZu8-32" value="" style="shape=stencil(lZPdbsMgDIWfhtsjB/N73XXvUanpgpYlVZr9vf3IqLpCFqbdGfMd8DFY8O7SHc6tkHSZp/G5fQ/HuRP8IKQMQ9dOYY6R4L3g3Wmc2qdpfB2OaX0+LOQSvYxvywkfSdcoaFpUkj6vGRj/nXhMfB+Ge95Cm4wnNBVeOkhV8ETbvNJwZT2N3OaNgWoyXsNUeKdXfhnKbQs8weUG4g3XzK8C62A4EyiGq5SkowWfCYyErwikB+WeHcFXmmrLirwCVzzfnujWI6q/moGz/xKsLfxRkiFw4VnDm8pHpZULq2CztsbgZy5Ooe/TWN3vl3MUU2kGef8F);fillColor=none;strokeColor=#00CC00;sketch=1;hachureGap=4;jiggle=2;curveFitting=1;fontFamily=Architects Daughter;fontSource=https%3A%2F%2Ffonts.googleapis.com%2Fcss%3Ffamily%3DArchitects%2BDaughter;" parent="1" vertex="1">
          <mxGeometry x="18.175836919428264" y="105.5824222774296" width="5.7582410875257555" height="7.824173812027817" as="geometry" />
        </mxCell>
        <mxCell id="QkLOHfmELqgNpAeMyZu8-33" value="" style="shape=stencil(fZHdDoMgDIWfhtum0Ihy7dx7mIiTjIFB3c/bT0Ky+RO9Oz3tB/TAqBy6utdM4DAGf9cv04wdowsTwrhOBzPOilHFqGx90LfgJ9ekuq/jZFQP/4wnvBOHgBghgZ9kcPxZ1wRY4xYAByVXgFSQn81zyNdApgDVMUACKFsBJIHkMSB3N/ACeHHyJNxtvd15Fv/EWmNtCnzZ3yY8W+l3qPoC);fillColor=none;strokeColor=#00CC00;sketch=1;hachureGap=4;jiggle=2;curveFitting=1;fontFamily=Architects Daughter;fontSource=https%3A%2F%2Ffonts.googleapis.com%2Fcss%3Ffamily%3DArchitects%2BDaughter;" parent="1" vertex="1">
          <mxGeometry x="30.26374565376034" y="108.96703967419302" width="2.9890123304429945" height="0.9670316256009616" as="geometry" />
        </mxCell>
        <mxCell id="QkLOHfmELqgNpAeMyZu8-34" value="" style="shape=stencil(fZLdDoMgDIWfhtuGtiJy7bb3MBEnmVOj7u/tpyHZxE3uSjlfSzkVnI910VtBcpyG7mIfrpxqwQdB5NraDm6aI8FHwXnVDfY8dLe29Oe+WJRLdO3uS4Wn51BKkHLBSL586pM4eaBx7QpQBigN9CnoNKL/qY8SMr0PkAadBQAxoNkH0ECSBAAbyCJPQgTEAFAaSEVmABWOrBVwpAFtJ8gMIO/r/3zR1oQ5+FpYuabxG7C+31o+p/y68PEN);fillColor=none;strokeColor=#00CC00;sketch=1;hachureGap=4;jiggle=2;curveFitting=1;fontFamily=Architects Daughter;fontSource=https%3A%2F%2Ffonts.googleapis.com%2Fcss%3Ffamily%3DArchitects%2BDaughter;" parent="1" vertex="1">
          <mxGeometry x="32.02198741200209" y="110.63737068595469" width="1.5824202652815935" height="6.065928700206044" as="geometry" />
        </mxCell>
        <mxCell id="QkLOHfmELqgNpAeMyZu8-35" value="" style="shape=stencil(hZTZUsMwDEW/xq935N16LuU/OtOUZAhNJ01Z/h6HUKhcYt4U5cjW1WJlN+d2d2qUofM0Ds/NW7efWmUflDHdsW3GbsqWsltlN4dhbJ7G4XLcL9+n3UzO1svwOp/wvsQZhtFzlKGPbw9c+HI8LnzfHW94S/BW8AQTK7yDDgVPtM47DeKCT6bCJ3iZv0d067zP8pLgtYevCPBZMImAXAJrK4oTQpFRXbKxiLJEgREqKTGcvCB5GL/O/1x/5dmDawmBoywR1RXohCQz4oBY65qGl11gAqf1gBBgndTs4CpdSAFBzmmMSLWiRlARwNfR+ls03dX1nz4wl6N014hs/G7qoev7ZdFv/5ebnV3Lq2C3nw==);fillColor=none;strokeColor=#00CC00;sketch=1;hachureGap=4;jiggle=2;curveFitting=1;fontFamily=Architects Daughter;fontSource=https%3A%2F%2Ffonts.googleapis.com%2Fcss%3Ffamily%3DArchitects%2BDaughter;" parent="1" vertex="1">
          <mxGeometry x="40.50550691374059" y="110.85714755215488" width="8.879119537688874" height="5.362636021205358" as="geometry" />
        </mxCell>
        <mxCell id="QkLOHfmELqgNpAeMyZu8-36" value="" style="shape=stencil(lZHdDoMgDIWfhltSWtF57dx7mIiTzIlB9vf2gxE3dXHJ7g7lOy30MCrGthoUQxidNSd107VrGe0Zou5bZbXzilHJqGiMVUdrLn0dz0MVyKDO5ho63KOPiBMFF8IjVoADvAqHyHe6n/M8gwWOXKbb+LvZhAvkO/yDJ8ETsc378YgLg0x/GqSc3jsZspwn+bZBwPcfYL0jLz4LbnTXxXzm9+tAfCmGSeUT);fillColor=none;strokeColor=#00CC00;sketch=1;hachureGap=4;jiggle=2;curveFitting=1;fontFamily=Architects Daughter;fontSource=https%3A%2F%2Ffonts.googleapis.com%2Fcss%3Ffamily%3DArchitects%2BDaughter;" parent="1" vertex="1">
          <mxGeometry x="24.153856549944237" y="127.3406673892514" width="0.3956067431104052" height="6.857138832846841" as="geometry" />
        </mxCell>
        <mxCell id="QkLOHfmELqgNpAeMyZu8-37" value="" style="shape=stencil(hVTLcsMgDPwarhpAgOCcpv+RmTi1p66dcdzX3xeX4hoaqzcsdiWtVkbg4daero3Q8jZP43Pz3p3nVuCD0Lob2mbq5ngSeBR4uIxT8zSNr8M5fV9PC3I5vYxvS4aPxFMKnFxYWn6miAZF34HHhO+7YYt3QK7AS5ByHx+vQ6jw1jB4Aqerfn4S3MUjApX9KwmIDMEClgK0AmI6Qg3SFAT0OXJfggFUBcHGoTEalKlbIgPEaLBgyxl5D5YpsFqU8cGxkqNFtpop7zLldtcCHpDZoqjAlCMKGpzbJxgCWxK8ZW0mmdd4nSmxix1HGErRMYWz+4RA2dRMcAGkZmyWf3z4r0TsqSIgBLUlxMPvr33p+j69DNv7+imIofSM4PEL);fillColor=none;strokeColor=#00CC00;sketch=1;hachureGap=4;jiggle=2;curveFitting=1;fontFamily=Architects Daughter;fontSource=https%3A%2F%2Ffonts.googleapis.com%2Fcss%3Ffamily%3DArchitects%2BDaughter;" parent="1" vertex="1">
          <mxGeometry x="29.868143941019923" y="128.10257393973214" width="7.956044962117961" height="5.391939603365385" as="geometry" />
        </mxCell>
        <mxCell id="QkLOHfmELqgNpAeMyZu8-38" value="" style="shape=stencil(lZTLcsIwDEW/JluNLcmvNaX/wQyhZEoJE0Iff1+laVpEg6bZOfY9jn2vrIpW5/3mVFfozn3XPtdvzbbfV/RQITbHfd01vYwqWle02rVd/dS1l+N2/D5tBuUwemlfhx3eR86BcwOE7mOcIHD5a+JxlB+a45XcR0hZ6X82mNUjQ3A3el/u66mASwv0XCBqPU4/nNWHCFiUPoFHQ58gotJ7BPIGIMs3QIFsACyAdhTFAzYscsBRR2bfQQ6AXgHM063mAfFQH0lsRloCBAclGkCGwBrw08x8HaXJxH8ClIEXASxJ5yVAkNLTpS3ZWzkkhBw0QIDpPpADMGkgmK+tRIi6ukOeimU+B/fn/Uc2oy4BSFdf8uCDcQkGr4NIdjHFBEHblKXpGABnIF1MxW4C5CFpm8Q4K2ofIGvgyrhvQga/PXbXHA5ji75ev+3JMjX2c1p/Ag==);fillColor=none;strokeColor=#00CC00;sketch=1;hachureGap=4;jiggle=2;curveFitting=1;fontFamily=Architects Daughter;fontSource=https%3A%2F%2Ffonts.googleapis.com%2Fcss%3Ffamily%3DArchitects%2BDaughter;" parent="1" vertex="1">
          <mxGeometry x="40.81319620321085" y="127.98535066821199" width="6.637365320226649" height="7.619047619047636" as="geometry" />
        </mxCell>
        <mxCell id="QkLOHfmELqgNpAeMyZu8-40" value="" style="shape=stencil(lZLbDoMgDIafhtsGKQJeO/ceJuokc2LQnd5+MkzmZJLsrrT/1xMlmI9tOdSE0XGy5lzfdTW1BA+EMd23tdXTbBEsCOaNsfXJmmtf+fdQOqWzLubmMjw8J1Og1FGMPr0HEWT29hw90Ol+BWQSXGwFJBy42gcSSrclMhDiL4CCiLSkEBA3+iXBT30a5E8oII90JEDIL4ApYJGZgwI8PrLaDiAZ8GRfj8HESkIaWVH4zastL8RsfK6k0V3nj2wd317V7PIXicUL);fillColor=none;strokeColor=#00CC00;sketch=1;hachureGap=4;jiggle=2;curveFitting=1;fontFamily=Architects Daughter;fontSource=https%3A%2F%2Ffonts.googleapis.com%2Fcss%3Ffamily%3DArchitects%2BDaughter;" parent="1" vertex="1">
          <mxGeometry x="79.45056621844952" y="92.13187517438618" width="0.5274644788804945" height="6.373621343256353" as="geometry" />
        </mxCell>
        <mxCell id="QkLOHfmELqgNpAeMyZu8-41" value="" style="shape=stencil(lVTZbsJADPyavI527T28z5T+BxKhRKUEBejx9900pcXQWOqb48ysjxm54cVxuzq0Dbnjaeif27dufdo2/NAQdfttO3SnGjW8bHix6Yf2aejP+/X0fViNyDF66V/HF94nHhFyGlnkPqaMg3NficcJv+v2V3ifQBrvPcQiMJzXhIKQ5wkJ0Sk8B5RkFEBihQ8F0cD/zHfBR4HEeXyAiMIngrDRT0SImuBRjALsIEV3VEDF6EiQdUsxmytKCSlrQkQ2WhKC16JFAvl5QiEk3VLIYKNCKfB66EBwwViruxOOM7xhpCJgPTUT2LBqiSjaSlSfoP9MXd3rjTVJtb6uUMV3htQSb2cIHt5SziHcmCnDyTwhRyQtdQ4Xe/1NcMh6BhEUQ7l7911p+c2owe+F2nS73XTgrv/fXrSamq4hLz8B);fillColor=none;strokeColor=#00CC00;sketch=1;hachureGap=4;jiggle=2;curveFitting=1;fontFamily=Architects Daughter;fontSource=https%3A%2F%2Ffonts.googleapis.com%2Fcss%3Ffamily%3DArchitects%2BDaughter;" parent="1" vertex="1">
          <mxGeometry x="77.5604516333276" y="106.94507238367103" width="5.406598101605426" height="9.93405520260989" as="geometry" />
        </mxCell>
        <mxCell id="QkLOHfmELqgNpAeMyZu8-42" value="" style="shape=stencil(fVPRcoMgEPwaXnfgDg54TtP/yExMdWo1Y0zb/H20tGnQkbfj2IVdllO8u9SHc6VIX8ahf6++muNYK35RRE1XV0MzTpXiveLdqR+qt6G/dse0Ph9m5Fx99J/zCd+JFwIozCzSt9QxiPan8ZrwbdM94YVhXYbX0Hob7zTYZniH6Lbx5OFirkdgZJtgDDRnBCZE3iY89D4ETfhQwksuyBtQwbEhWJMRgiAULuCVg+ihCwRnYReZ6XIK3oPyFKKACzFEho9LE84UXOvVu3oHV3CxvkI8TCyYcAiSEwiBCu/EMLmk6feagiQSUB6dyN8Rv4Sp+B+lU9O2aRKf95ejN7XS2PL+Dg==);fillColor=none;strokeColor=#00CC00;sketch=1;hachureGap=4;jiggle=2;curveFitting=1;fontFamily=Architects Daughter;fontSource=https%3A%2F%2Ffonts.googleapis.com%2Fcss%3Ffamily%3DArchitects%2BDaughter;" parent="1" vertex="1">
          <mxGeometry x="76.50550590766659" y="122.88645135788693" width="6.373626373626374" height="12.05860962361205" as="geometry" />
        </mxCell>
        <mxCell id="QkLOHfmELqgNpAeMyZu8-46" value="" style="shape=stencil(lZTbboMwEES/xq+j9a6vz2n6H5FCCiqFiJBe/r5QqymmxVXezHLGy85oUbK71IdzpZgu49A/V2/NcayVPCjmpquroRmnk5K9kt2pH6qnob92x/R8PszkfHrpX+cb3pPOC7SeVUwfqWIR5avwmPi26Ra8tdAh4wlE27zxiHQHLwbGrnhvtnnWCDmvb5U/BZoQORNwhCtMbMD5ACYgxG3+Nt837wni77g/lBPQsnYoGgRdsMjDS24R/RsaubyFgxQELsLn3xQYzNuCEMAmEzhGdKXYfvlqyi1ihM6HYIEvDBEIzuc+lY21HtqsBVSIespaVh2mbMJSMB1+VvXUtG3a9OX79WpPpfRbkP0n);fillColor=none;strokeColor=#00CC00;sketch=1;hachureGap=4;jiggle=2;curveFitting=1;fontFamily=Architects Daughter;fontSource=https%3A%2F%2Ffonts.googleapis.com%2Fcss%3Ffamily%3DArchitects%2BDaughter;" parent="1" vertex="1">
          <mxGeometry x="121.91210065569197" y="89.01099672422305" width="5.230769901485234" height="5.934064257275927" as="geometry" />
        </mxCell>
        <mxCell id="7hTBveZVP3QxiGXlwmws-1" value="" style="shape=stencil(lVTbTsMwDP2avFqJnevzGP8xaR2NKO3UFdj+npQI6OrVEm+ue459fIkV7S7t4dwo1JdpHF6bz3ycWkVPCjH3bTPmqViK9op2p2FsXsbhvT/W7/NhRs7W2/AxR7hWnteg9cxCfaueCMZ+O54rvsu9iEfQ/j94A6S38S4C0R3+N8BjvON6MG7jLYtvNBghATECEhjaJiAjlBDGbBOMBx/uCK54hBoYPhAkYWZmjY8eUhB6um5pCqAFvHnQU3lqlklKHiwKJbOaYwQUNEXepAAoSFpI/mF4B1ZIkfjcHJCkiWUo2+iEVeLLbR14oQi+e7aMWto9JsmV5yC8Z44vGt0SX4y/Y3PKXVdv1fL/+jgVVz1stP8C);fillColor=none;strokeColor=#1B50CC;sketch=1;hachureGap=4;jiggle=2;curveFitting=1;fontFamily=Architects Daughter;fontSource=https%3A%2F%2Ffonts.googleapis.com%2Fcss%3Ffamily%3DArchitects%2BDaughter;" parent="1" vertex="1">
          <mxGeometry x="137.34067812070742" y="79.64835634336367" width="2.6373592837826236" height="13.49450918344351" as="geometry" />
        </mxCell>
        <mxCell id="7hTBveZVP3QxiGXlwmws-2" value="" style="shape=stencil(lZPdbsMgDIWfhtsjsPm97rr3qNR0QcuSKk338/YjY1ILXZB25zjng2MbC95d+sO5EyQvyzy9dh/xuPSCnwRRHPtujkuKBO8F707T3L3M03U85u/zYVWu0dv0vp7wmTklJaRcMZJfvykL634yz5kY4nhHGAulC4AQwrZeMzRVemO39cpBqUJvoLjhB2RL/wHU0D/Umwyahn9GMIXets9XBi4UgPfQjYJZwfiygttQ/i5ZgcuWBgKrbSBZduXMnIHV24DXoGoI7akFXd9AFoH+A3iExrPzBF+2td0j+/CM2npNtd5CFy1NwW2LTnEY8hLe/6+3LqXyxvL+Gw==);fillColor=none;strokeColor=#1B50CC;sketch=1;hachureGap=4;jiggle=2;curveFitting=1;fontFamily=Architects Daughter;fontSource=https%3A%2F%2Ffonts.googleapis.com%2Fcss%3Ffamily%3DArchitects%2BDaughter;" parent="1" vertex="1">
          <mxGeometry x="140.8571549300309" y="83.86813589242789" width="3.3406553163633244" height="3.4285727700034343" as="geometry" />
        </mxCell>
        <mxCell id="7hTBveZVP3QxiGXlwmws-3" value="" style="shape=stencil(fZPdboMwDIWfJrdHie38XXfde1QqHWgMKkr38/aDRWyEjtw5jr/EPkdWfLjVp2ulSN/GoX+tPprzWCt+UkRNV1dDM06R4qPiw6Ufqpehv3fndL6e5so5euvf5xc+E6eh9QyR/koJwxD7k3lO9W3TreqZESkDSOAKgBCMyQA2iLwP2Li8twDiod0+4Cx8zABnwFIAAiSfwVu4QkvOwfkMCB6iCwCBQgZEQSzMYC3I5T7oX2v+19WD855iAFMBMCDOAQ1f6Ik9/EamAFOy+uGHSQcTClNrhFwmseAC8Gg1BVi/DwSCbHQVUNwHVrIvxNaHKfjbpkvTtmkZ1/fb7ZtSaXP5+A0=);fillColor=none;strokeColor=#1B50CC;sketch=1;hachureGap=4;jiggle=2;curveFitting=1;fontFamily=Architects Daughter;fontSource=https%3A%2F%2Ffonts.googleapis.com%2Fcss%3Ffamily%3DArchitects%2BDaughter;" parent="1" vertex="1">
          <mxGeometry x="145.95605200463604" y="83.56044157258756" width="5.010993035285027" height="5.2307749318552546" as="geometry" />
        </mxCell>
        <mxCell id="7hTBveZVP3QxiGXlwmws-4" value="" style="shape=stencil(fVPRbsMgDPwaXk9gQ4DnrvuPSk0XtCyp0nRb/75kqFvdNbwZc4dP50Px5tTtjq0ifZqn8b39Svu5U/yiiNLQtVOac6V4q3hzGKf2bRrPw76cj7sFuVQf4+fywnfhGa2h9UIjfbm1oMNP57Uw+jTcMSIjREFg6LiODxFs5AA0Zh3vHZwX+F+FT/HOg5zAW1i7jmeHEKQeC1MRZBxICqJYnUAgaZD1iBVH/22g8fCV9xsEqSfwrfNcDyHKAdHBNOsEmy16zER9CVmxkabGAF9JRdQIVhIsvNCUi7/UHlLfl9Df3z+mPLfKD+HtFQ==);fillColor=none;strokeColor=#1B50CC;sketch=1;hachureGap=4;jiggle=2;curveFitting=1;fontFamily=Architects Daughter;fontSource=https%3A%2F%2Ffonts.googleapis.com%2Fcss%3Ffamily%3DArchitects%2BDaughter;" parent="1" vertex="1">
          <mxGeometry x="154.43957653674454" y="81.5824212713556" width="5.758244441105769" height="10.901101919320913" as="geometry" />
        </mxCell>
        <mxCell id="7hTBveZVP3QxiGXlwmws-5" value="" style="shape=stencil(fZTZcsIwDEW/Jq93ZMnrM6X/wQyhZEoJE9Lt7+s0NUVA/OYo9zhXS9TI6rzfnNqG6TwO/Wv72W3HfSNPDXN33LdDN+ZTI+tGVrt+aF+G/v24nZ9Pm0k5nd76j+mGr5ljAseJYvqeI9aDzG/keQYO3fEKMILgFCAWzlcAA5MUwAnWLQMOTutNhKVlPcOQ0idEXpYTSMu56oYRtfzCL5WHtXuLVCkne7igs3UQuwxYg+R1/Qk+VMqZ26MbZhMoLgOeEK0CfICtAbY4LkDkagu8wGsgCWIlh2zJaMBQvQ/3WaeIUPlEHvuogRhLpR8DVMa+ACGnVclaEowGnEBqlizCTasFRipJR9BNmXKrK5ZCKI4vgClXPB5vuvt9fNkHf0A+/C+bXXc4zLvq+v3tcsqhebHJ+gc=);fillColor=none;strokeColor=#1B50CC;sketch=1;hachureGap=4;jiggle=2;curveFitting=1;fontFamily=Architects Daughter;fontSource=https%3A%2F%2Ffonts.googleapis.com%2Fcss%3Ffamily%3DArchitects%2BDaughter;" parent="1" vertex="1">
          <mxGeometry x="134.6593534029447" y="115.60440164083963" width="6.285718980726305" height="7.164836506267171" as="geometry" />
        </mxCell>
        <mxCell id="7hTBveZVP3QxiGXlwmws-6" value="" style="shape=stencil(lVXLbgIxDPyavY6SOHHiM6X/gcRSVqWAgL7+vtmuoDiApd5C1oM9M3bc0ey4Xuz7Lrjj6bB77T+H5Wnd0VMXwrBd94fhVE8dzTuarXaH/uWwe98up9/7xRg5nt52H+M/fE24CCcjKLjv6YILXPy9eZ7iN8P2Kt57eK8BCewMQEJuMjA4PwaEBJ/akqI8BhCjRAXIEZEeAyIjFw0QxPQYkCJIcygRYmRIGaRVKmLKeptBPCgYHCpFTVoC2FLJQZoMdBb6vnEM4RbA3igJrFWViGRQcHBOxzPIKCiAGsYFbJjgA0pWAO8uOe9nEJTQpvBGryaHIP9xIfuWRPHIRmOUDE96GuqNoapkOG3DWKQlk7sxggKilYLP83gRNpvOlYKiAQlikM4Fop8A2zcWpKYgkGEbByTdGXJW+X68a/tibHY2AL4dtljfTYtBRtCMU9XAANQnLmgKmSAG51I91eNcWyuoca6HvzWxGjabactcf2/XSr2aVhLNfwA=);fillColor=none;strokeColor=#1B50CC;sketch=1;hachureGap=4;jiggle=2;curveFitting=1;fontFamily=Architects Daughter;fontSource=https%3A%2F%2Ffonts.googleapis.com%2Fcss%3Ffamily%3DArchitects%2BDaughter;" parent="1" vertex="1">
          <mxGeometry x="141.25276334993134" y="114.10989882919816" width="7.516482845767514" height="9.626370943509615" as="geometry" />
        </mxCell>
        <mxCell id="7hTBveZVP3QxiGXlwmws-10" value="" style="shape=stencil(lZHNDoMgEISfhitZF7F6tvY9TMRCSsEg9uftC6FJ0SYm3obZbyDMEtbOsp8EQZi9szfxVIOXhJ0JojJSOOWDIqwjrB2tE1dnFzOk89RHMqq7fcQbXikHFCCGEN4b45JwrUyGY0OL0wG+BFqxA3xVUl6veOS7gRopNqsA33+hgL8vZ9Y3EsSvsFFpnfrO59uCg5WWw7oP);fillColor=none;strokeColor=#1B50CC;sketch=1;hachureGap=4;jiggle=2;curveFitting=1;fontFamily=Architects Daughter;fontSource=https%3A%2F%2Ffonts.googleapis.com%2Fcss%3Ffamily%3DArchitects%2BDaughter;" parent="1" vertex="1">
          <mxGeometry x="154.3956178099245" y="119.95604395604397" width="4.219782902644231" height="0.17583490728021978" as="geometry" />
        </mxCell>
        <mxCell id="7hTBveZVP3QxiGXlwmws-11" value="" style="shape=stencil(lZLbDoIwDIafZrfN1jLKrhHfgwSQRQQCeHp7wQUFFBLuevi/ps1fQWGbx3UqULZdU53Tu026XNBBINoyTxvb9ZGgSFCYVU16aqprmbi8jgflEF2q2zDh4TgJUg4QyqcrkA/kvytHpy9sOdErMGamZwSmdb0PjDN9oCDAjfkMRs0AJT87/iVIg+RdhNZgeM9S7IFPM0B7oPU6EJixPQLIgLxxtvwxYnlDH3xNzGxRuB+Y9pem9yX3MBS9AA==);fillColor=none;strokeColor=#1B50CC;sketch=1;hachureGap=4;jiggle=2;curveFitting=1;fontFamily=Architects Daughter;fontSource=https%3A%2F%2Ffonts.googleapis.com%2Fcss%3Ffamily%3DArchitects%2BDaughter;" parent="1" vertex="1">
          <mxGeometry x="154.21979631696428" y="122.41758510044644" width="5.8901072072458796" height="0.48352251996050827" as="geometry" />
        </mxCell>
        <mxCell id="7hTBveZVP3QxiGXlwmws-12" value="" style="shape=stencil(lVTLboMwEPwariN7189zmv5HpJCCSiEipI+/rymC4iC26s1ez3h3x+Mt+HCrTteyIHUb+u61/KjPQ1XwU0FUt1XZ10NaFXws+HDp+vKl7+7tedpfTyNyXL117+MNnxPPRXAcWaS+pkgEmZ/A84Rv6naFNwExZHgFpQS8RjAZnsB6H08WVj/UE3kfrw0or581jJDAQOX1Wwe2+/ilvRnvk0DC/Qzl8vottHC/plnvmaCVLCl5WJun8CBBI0MIeU0hYNzuEZIkmvKmDdjtE5ydH3VR1UMJNnIB7DNCMooWZN36lBW80MOWkKwV/L8IKSLI6tVstKWkKJbkGSZv2jJsEAibl066BSFDYLg8Q1Bwgpfi5nv+YY2VORf3pR+dNZEWv+PmUjfNNK3W54/jKYWm0cbHbw==);fillColor=none;strokeColor=#1B50CC;sketch=1;hachureGap=4;jiggle=2;curveFitting=1;fontFamily=Architects Daughter;fontSource=https%3A%2F%2Ffonts.googleapis.com%2Fcss%3Ffamily%3DArchitects%2BDaughter;" parent="1" vertex="1">
          <mxGeometry x="168.28573038289835" y="119.01832038404302" width="4.307686941964286" height="6.344325027186372" as="geometry" />
        </mxCell>
        <mxCell id="7hTBveZVP3QxiGXlwmws-13" value="" style="shape=stencil(fdLNDoMgDADgp+HalIICZ+few0SdZE6Nur+3n4S5yRa8tYUPSAsT2dQUQ8UIp3nsz9XdlnPDxIER2a6pRjsvERM5E1ndj9Vp7K9d6fOhcDtddOlv7oSHdxwREB0jfPrSp3D0oLXdBhgEksF+TpDsAM1B8QCQBJfGQKoAVQCkhETEQcLX81aQStAyDkQKiQmAJsCdG0gAD59kCLiJg6UnFHbVpKBVHPxNYTOYN1iC7xRr27b+E2zXf6e+lPyPEfkL);fillColor=none;strokeColor=#1B50CC;sketch=1;hachureGap=4;jiggle=2;curveFitting=1;fontFamily=Architects Daughter;fontSource=https%3A%2F%2Ffonts.googleapis.com%2Fcss%3Ffamily%3DArchitects%2BDaughter;" parent="1" vertex="1">
          <mxGeometry x="175.23078666938534" y="117.31868131868131" width="3.604394262963599" height="5.62638167496566" as="geometry" />
        </mxCell>
        <mxCell id="7hTBveZVP3QxiGXlwmws-14" value="" style="shape=stencil(dZDdDsIgDIWfprekcqLxfs73WDImRISF4d/bC6lR1Hh3etqvf4RuscNsSPOSUzyaqxuzJexIaxesSS4XRegJ3RSTOaR4DqPE81ArqzrFS+1wE27FrJgrpvku1svYC+BdaABAAR/1m7Xa4j/w078Z+QSKeO83Oe/lvDb/fU+x5BfoHw==);fillColor=none;strokeColor=#1B50CC;sketch=1;hachureGap=4;jiggle=2;curveFitting=1;fontFamily=Architects Daughter;fontSource=https%3A%2F%2Ffonts.googleapis.com%2Fcss%3Ffamily%3DArchitects%2BDaughter;" parent="1" vertex="1">
          <mxGeometry x="176.5494612809066" y="117.6703377189217" width="0.17582149296016483" height="7.032967032967033" as="geometry" />
        </mxCell>
        <mxCell id="7hTBveZVP3QxiGXlwmws-15" value="" style="shape=stencil(lVXbboMwDP0aXq3EzvW56/6jUulAY6Wi7Pb3C4uqUVu42lsIPo7P8XHS0O7aHS5tg+Y6T+Nr+9kf566hpwaxP3ft1M9l1dC+od1pnNqXaXw/H+v35bBELqu38WPJ8FVxSEC0oNB81x0DxvxuPNf4oT+v4m2GmO7iE/igxKdbulu8jRC8AvC8IHIQtRMQQrwDeITsFIDlJ4QEOSkAwzkkCwm3AYlXlDKQIqrQKDuwSv7ICeQAqEgk6skI3v5HoRTAaq4QTYuFU9wGIHLKpQdOsQUZziEYcLQNcMLY3oFRSHuhkiteV06IjnNwJYXWBtFnX4RWnFrayq2dVONZI6z6wNtZ1JQMoCLTYmVmPgOktLrIxN0XIGalEWKgV7S2zMEHKINTapIGfzBB8gCdtBwggqzkFxMdIzNrWfzd4ad+GOoTsP7P7/yyVd8L2v8A);fillColor=none;strokeColor=#1B50CC;sketch=1;hachureGap=4;jiggle=2;curveFitting=1;fontFamily=Architects Daughter;fontSource=https%3A%2F%2Ffonts.googleapis.com%2Fcss%3Ffamily%3DArchitects%2BDaughter;" parent="1" vertex="1">
          <mxGeometry x="185.20880730597526" y="118.19780219780222" width="6.593406593406594" height="8.219785585508243" as="geometry" />
        </mxCell>
        <mxCell id="7hTBveZVP3QxiGXlwmws-16" value="" style="shape=stencil(fZFNDoMgEIVPw3YCDAiubXsPE7GSWjFo/25fCE0rNbobHu9jhnkEq6mrR0M4nWbvLuZhm7kjeCCc26Ez3s6hIngkWLXOm7N3t6FJ57GOzlhd3T2+8EwcoxQojRinryR9hVMCejssgJKDKDO/AqW3/VqAZJk/NNC4DSgGDDNAMCjUNiAF8Bwo5G4HXI2k5e6fmQbMgXIfWO10seYPEIpfJq3t+xTp8v4/wyCl/PH4Bg==);fillColor=none;strokeColor=#1B50CC;sketch=1;hachureGap=4;jiggle=2;curveFitting=1;fontFamily=Architects Daughter;fontSource=https%3A%2F%2Ffonts.googleapis.com%2Fcss%3Ffamily%3DArchitects%2BDaughter;" parent="1" vertex="1">
          <mxGeometry x="194.21979631696433" y="118.37363710508242" width="6.241763607486264" height="5.274725274725275" as="geometry" />
        </mxCell>
        <mxCell id="7hTBveZVP3QxiGXlwmws-17" value="" style="shape=stencil(fZJJEoMgEEVPw7YLGpnWxtzDKjVSMWqpmW4fDBnEGHZN81//LviEp2Od9yVBOk5DdyyvtphqwncE0bZ1OdjJVYRnhKdVN5SHoTu3hT/3+aycq1N3mSfcPEeB0hlCevcNBRqfjb2XN7ZdyBGUDuQfflOeAFOBnAGLTFcgk0Du7Mx/OZMgV+MlYGQdNKBlAPDkbbm9vwKDASAEiMhKUgMNHZQEEXHQCVAeANqAiQCGgxIBYNwziMgr0Z8/XrReiCu+Cals0/iALe/XiXItn0aePQA=);fillColor=none;strokeColor=#1B50CC;sketch=1;hachureGap=4;jiggle=2;curveFitting=1;fontFamily=Architects Daughter;fontSource=https%3A%2F%2Ffonts.googleapis.com%2Fcss%3Ffamily%3DArchitects%2BDaughter;" parent="1" vertex="1">
          <mxGeometry x="195.01099974244505" y="118.66667292668271" width="6.329667646806319" height="5.245421692565247" as="geometry" />
        </mxCell>
        <mxCell id="7hTBveZVP3QxiGXlwmws-18" value="" style="shape=stencil(fZLbDoMgDIafhtsGipyu3fYeJuIkc2LUnd5+EC4mLnJXyv/1b9oSXi99M1mCdFlnf7Mv16494SeC6Mbezm4NEeFnwuvOz/Y6+8fYpvfURGWM7v4ZK7wTR4HSCCH97BKXJB/cuJEbwFzOBGh+rA/lpMkAFEWDigHXGVAhiAIgNRiVAZIBimNAG5AiA5QErY4BRv+GpDWogoWRIHKLkCn2hKBkPle6X0QIfkvs3DCkG9j+75ceUulg+PkL);fillColor=none;strokeColor=#1B50CC;sketch=1;hachureGap=4;jiggle=2;curveFitting=1;fontFamily=Architects Daughter;fontSource=https%3A%2F%2Ffonts.googleapis.com%2Fcss%3Ffamily%3DArchitects%2BDaughter;" parent="1" vertex="1">
          <mxGeometry x="196.5934334220467" y="117.49451622596155" width="1.274709177541209" height="7.032967032967033" as="geometry" />
        </mxCell>
        <mxCell id="7hTBveZVP3QxiGXlwmws-19" value="" style="shape=stencil(fZFNDoMgEIVPw5YAI0HX1t7DRCykFAzav9sXQtoCC3aPN3zMzAPBuKt5k4iR/fDuKp96ORSCE2JMWyW9PoJCMCEYV+flxbu7XdJ5m+PNqG7uEV94JY5gQiLEyDsZlPyscwKMthnQcTz0BcHbABe4EwUAAvMG0DNMyw6UNYGBYqhGak6UrfgF6hWC+Ce2amNS4Hm9TjhY6Xdg+gA=);fillColor=none;strokeColor=#1B50CC;sketch=1;hachureGap=4;jiggle=2;curveFitting=1;fontFamily=Architects Daughter;fontSource=https%3A%2F%2Ffonts.googleapis.com%2Fcss%3Ffamily%3DArchitects%2BDaughter;" parent="1" vertex="1">
          <mxGeometry x="194.13187886332423" y="120.30770035628436" width="7.6483623798076925" height="1.7582417582417582" as="geometry" />
        </mxCell>
        <mxCell id="7hTBveZVP3QxiGXlwmws-20" value="" style="shape=stencil(fZPdcoMgEIWfhtszLIssXKfpe2QmpjK1mjGmP29fLWMqZuRuXb4D5wir+HBrTtdaGX0bh/69/ornsVH8ooyJXVMPcZwqxUfFh0s/1G9Df+/O6ft6msm5+ug/5x2+k04stMwqo39ShwKs/uu8JkEbu5XABZDNBBWsFHgLTxlvEMI+X1k4zngNXfDDHj5kfIAUeMOgKvcjcLQvCDAuz1s29FhdeDHgQuAn3ntot88LbP4/g0AX/BsC5weQLiewGmK3R0jBkiPQxhNBCpnFL3f0CG3gbeESniwJw/t9wSrjopheImWKqfgfi0ts2zRV6/XtGE2tNIJ8/AU=);fillColor=none;strokeColor=#1B50CC;sketch=1;hachureGap=4;jiggle=2;curveFitting=1;fontFamily=Architects Daughter;fontSource=https%3A%2F%2Ffonts.googleapis.com%2Fcss%3Ffamily%3DArchitects%2BDaughter;" parent="1" vertex="1">
          <mxGeometry x="204.32967971969435" y="121.27473198188531" width="4.747254088684753" height="5.8901072072458796" as="geometry" />
        </mxCell>
        <mxCell id="7hTBveZVP3QxiGXlwmws-21" value="" style="shape=stencil(lZTdbsIwDIWfprdHiZ04yTVj74FEGdUYRaXs5+2XriprKHjaXTD+7PocyxWvzvvNqa7InPuufa0/mm2/r/ipImqO+7pr+vyqeF3xatd29UvXXo7b8fdpM2QOr7f2fajwOXIiIDNQZL7GCHsE+xN5HoFDc5wBwSCmArAB7BWA4F0JEMgpgIP4AsgVtAY8lZvyDYx5nC8Jxv6jvhAkFvkJkh7newHfDJyQlA/yhEilBxbCCsDwJeBI9cBHuFJSb2FImTlASo1yCQmKCQm+FEn8NNVdIBnYUqXso1M6pHC7eFFXyZrrHlyJCNJaOHAoneYpcn/qACclIEjKbnsH4hKISPExQAtdZ2PdJRZW/9FhIVIewSmyLpY16btn7aT51YWAIHMgP37v0645HMbzNv//9p7l0HgLef0N);fillColor=none;strokeColor=#1B50CC;sketch=1;hachureGap=4;jiggle=2;curveFitting=1;fontFamily=Architects Daughter;fontSource=https%3A%2F%2Ffonts.googleapis.com%2Fcss%3Ffamily%3DArchitects%2BDaughter;" parent="1" vertex="1">
          <mxGeometry x="128.0526412160773" y="144.63158296283922" width="7.4736866198088" height="10.315800717002467" as="geometry" />
        </mxCell>
        <mxCell id="7hTBveZVP3QxiGXlwmws-22" value="" style="shape=stencil(rVfbbtswDP0avxISKVHic9f9R4GmS7AsKdLs9vej53kLaZeBgb05Do8lHh4eSgM9vO2fXncDprfr5fx59/3wfN0P9GFAPJz2u8vhqk8DPQ708HK+7D5dzl9Pz9Pv16cxcnz6cv42fuHHhEuQ0gjC9HN6wR0q/n7zcYo/Hk438RUKmfiO0IL4Drna+ASV34/PCN0CWoeWAkAFbjaDBpkCAANnA6gMKUghFyhoAKXPn1gHKKmWpMJAQQ4VyMbXPLOwvgD0blNOwGE8Ok4TUHs/nqC4eIEcxC+LTNCjmhVotAWgMmXZIiOltNkitzorfR3QoRffCNIDgEBxuquAMcCxxJq0hFuqliUuQEGZsYG4ZmbAKOkG1dLKAhIoe7nCPVoXSWvhUpA0ZRBL6x1pkLYWbwGU7LV0x2G0eb2WctzOCbLdkla6BJak7V6cJfXZEv4TIEFzloFQN+WgntE3raCmwREAZzH/LRxDDVym1tmEZoDomiUAiPe9LtADeWuZ2JpA1zUDteqo8dJoQMEKI4nOBOJ529BbJWfI0QrkadXxJgFLCkg26dpmda0DMjTxW4oKp0l7I4u9VQGIntYWAbJXq2opZKkA2hwEZy9cB+jIt/KWElqlulBLW1ZQbaZNQ1HIn0vUvUtQaWHotoHunDNEt2RpJQylkdPiPDketwJtrCBqONmXe0rhBBI9DdrCYSilsaw2Xo+kEm0IfTtgPE/UtcSZd5yCKsPNxDtjWgG0yceWAKnhCVEBbKtwU8g/CH34d+t4ORyP06Xl9n9/S9FX0w2HHn8B);fillColor=none;strokeColor=#1B50CC;sketch=1;hachureGap=4;jiggle=2;curveFitting=1;fontFamily=Architects Daughter;fontSource=https%3A%2F%2Ffonts.googleapis.com%2Fcss%3Ffamily%3DArchitects%2BDaughter;" parent="1" vertex="1">
          <mxGeometry x="139.1052727950247" y="143.89474005448193" width="16.789474487304688" height="11.368424265008224" as="geometry" />
        </mxCell>
        <mxCell id="7hTBveZVP3QxiGXlwmws-23" value="" style="shape=stencil(lZHdDsIgDIWfhtsGWgx4Ped7LBlzxDkWNv/eXpCo23Qa7w7lfG3hMMr6uugMQ94P3u3N2ZZDzWjDEG1bG2+HoBjljLLKebPz7tiW6dwV0RnVwZ1ih0viOHAeIeTXVJASpLxXtsnf2PabX2vQ62W/QMApIPizx0eCBCjxF7FSQDghlAKllwH9NuLHq0cbPIj5SkG8/riyTZMiGt/PMwmllCflNw==);fillColor=none;strokeColor=#1B50CC;sketch=1;hachureGap=4;jiggle=2;curveFitting=1;fontFamily=Architects Daughter;fontSource=https%3A%2F%2Ffonts.googleapis.com%2Fcss%3Ffamily%3DArchitects%2BDaughter;" parent="1" vertex="1">
          <mxGeometry x="154.6842233758224" y="147.89474326685854" width="4.315787867495889" height="0.47368300588507406" as="geometry" />
        </mxCell>
        <mxCell id="7hTBveZVP3QxiGXlwmws-24" value="" style="shape=stencil(fZDRDsIgDEW/hlfC2gz2Pud/LBkTIsLCcOrfC+FBWCJvt+09bXMJjruaN0mA7cG7u3zpJSiCFwKgrZJeh6gITgTH1Xl58+5pl1xvc3Im9XBH2vDOHKOMJQjY59S4ZrvRtrBDRweo/KJvAigoiAoYBO0bAOcUeQV0rP1TMf97I4pfAqs2JgdYzs+JxVZOG6cv);fillColor=none;strokeColor=#1B50CC;sketch=1;hachureGap=4;jiggle=2;curveFitting=1;fontFamily=Architects Daughter;fontSource=https%3A%2F%2Ffonts.googleapis.com%2Fcss%3Ffamily%3DArchitects%2BDaughter;" parent="1" vertex="1">
          <mxGeometry x="163.52632221422698" y="147.4736890290913" width="5.789481715152139" height="0.8421064677991366" as="geometry" />
        </mxCell>
        <mxCell id="7hTBveZVP3QxiGXlwmws-25" value="" style="shape=stencil(hZLLDoMgEEW/hi0ZGXytrf0PE7GQWjGIffx9ISStYoK7y+UemMwMwWaR3SwIg8UafRcv1VtJ8EIYU5MURlmnCLYEm0EbcTN6nfpwnjuf9Oqhn/6Fd+CAAniIwScY/OdcQ35U0yafMcr5DqjSwPGHOg1gEQMZpImcx8RJTWVGEXdAngaqQ00sDdScFuUOOGkrHNoUA078hziocQw7sL2Ph+6ssDDYfgE=);fillColor=none;strokeColor=#1B50CC;sketch=1;hachureGap=4;jiggle=2;curveFitting=1;fontFamily=Architects Daughter;fontSource=https%3A%2F%2Ffonts.googleapis.com%2Fcss%3Ffamily%3DArchitects%2BDaughter;" parent="1" vertex="1">
          <mxGeometry x="164.57895379317438" y="151.47369224146792" width="7.894744873046875" height="0.5263117740028783" as="geometry" />
        </mxCell>
        <mxCell id="7hTBveZVP3QxiGXlwmws-28" value="" style="shape=stencil(lZHNDoMgEISfhutmWUqlZ2vfw0SspBYMYn/evhKS1mo8cJsd5tuEHSbKsasHzQjH4N1NP00TOibOjMjYTnsTZsVExUTZOq+v3k22SfNQx2RUd/eIG16J44iAGDHCd7K+xiUBvbELYBPnQGo/TnKT5yAPOQCdQPF94Egg/wEpoShygEKBkll/wPWRZvE7cWv6PjW0fF9XMlupTlF9AA==);fillColor=none;strokeColor=#1B50CC;sketch=1;hachureGap=4;jiggle=2;curveFitting=1;fontFamily=Architects Daughter;fontSource=https%3A%2F%2Ffonts.googleapis.com%2Fcss%3Ffamily%3DArchitects%2BDaughter;" parent="1" vertex="1">
          <mxGeometry x="115.0696069067651" y="121.71428236070571" width="0.11721432864010989" height="4.5714325957245885" as="geometry" />
        </mxCell>
        <mxCell id="7hTBveZVP3QxiGXlwmws-29" value="" style="shape=stencil(lVXLcsIwDPyaXDW2ZVn2mdL/YIZQMqWECfT193WahiIHlMnNKCsk766lClfn/eZUV86cL137Wn8228u+wqfKuea4r7vmkk8Vritc7dqufuna9+N2+H3a9Mj+9NZ+9P/wNeQZMKZPcuZ7CDgG9r+R5wF/aI4aHj0EtwDvHVBcgKcIJizAswebFuAjgzUa/o+NEZ8QiB7jLXiWeAOJH+MdOCv7QYgqPsl+OEeU/hFCFPhgICj9MyBJvRIYVO4bIMkLoC4YGrCyQo6g4iDvIcoER2CVCr1jUpkQ7eOEQOAlqaiTGnjk8MqS3lLwwJKlYEch798hAQWps04rTYSeMR5NXkKaqTC1NoNXhKPMumwpprHJ+yzh2PH10vpjy95nqTTpCXFqvpkEAicrZMNb5T3kcULFAFO9FwOwFPqqy308lubWjcQJvHSe1X3BVE48F8BrItBkxOsjg3kyw/QJEF05lGaGdozgiqmtezvlpeEKlnQdbr7f1GChdD78r91dczgMW/v2e7mmc2hY8bj+AQ==);fillColor=none;strokeColor=#1B50CC;sketch=1;hachureGap=4;jiggle=2;curveFitting=1;fontFamily=Architects Daughter;fontSource=https%3A%2F%2Ffonts.googleapis.com%2Fcss%3Ffamily%3DArchitects%2BDaughter;" parent="1" vertex="1">
          <mxGeometry x="117.64836237980774" y="119.999998490889" width="5.978017953725962" height="6.813187651581817" as="geometry" />
        </mxCell>
        <mxCell id="7hTBveZVP3QxiGXlwmws-30" value="" style="shape=stencil(lZHNDsIgEISfhitZWC3ca32PJqVCRGgo/r29IEbbGqPehhk+sjsQrEfdDopwGGPwe3U2XdQEN4Rz47QKJiZFsCFY9z6oXfBH15Xz0OabWR38Kb9wKRyjQmSIw/VhAFCAu7UtgDVuAjzTXwGGVPC/CKwolzNCIkX8DFSSstUMWH+ZCd7WWAJJvDrrjbWl8mm+7DhZ5X+wuQE=);fillColor=none;strokeColor=#1B50CC;sketch=1;hachureGap=4;jiggle=2;curveFitting=1;fontFamily=Architects Daughter;fontSource=https%3A%2F%2Ffonts.googleapis.com%2Fcss%3Ffamily%3DArchitects%2BDaughter;" parent="1" vertex="1">
          <mxGeometry x="121.63370768229174" y="121.8021947839758" width="3.311353969923273" height="0.26374397697029534" as="geometry" />
        </mxCell>
        <mxCell id="7hTBveZVP3QxiGXlwmws-31" value="" style="shape=stencil(UzV2Ls5ILEhVNTIoLinKz04tz0wpyVA1dlE1MsrMy0gtyiwBslSNXVWNndPyi1LTi/JL81Ig/IJEkEoQKze/DGRCBUSfgZ6BAUiTkUElmoAbRHlOZh6SchNDPTNzEtQbGmBYgCQE1QJkIJyXlpmTA/Edsjy6d4BCkKAwdgUA);fillColor=none;strokeColor=#1B50CC;sketch=1;hachureGap=4;jiggle=2;curveFitting=1;fontFamily=Architects Daughter;fontSource=https%3A%2F%2Ffonts.googleapis.com%2Fcss%3Ffamily%3DArchitects%2BDaughter;" parent="1" vertex="1">
          <mxGeometry x="114.30770035628439" y="118.37362369076237" width="0.7032993861607143" height="0.17583155370020606" as="geometry" />
        </mxCell>
        <mxCell id="7hTBveZVP3QxiGXlwmws-32" value="" style="shape=stencil(fZDbDoIwDIafprektvEJAN+DhOEa5kbG8PD2bqnRiYl3f//26wm4Xe2wGCBcUwyzucmYLHAHROKtiZKyAu6B2ylEc45h86PGy1Aqi7qEa+lwV+6A2CAWjPCh1ts4KeDEVwBzw/xVT8e/wE//auQLyOKz3yTO6Xl1fn9PtvQX3D8B);fillColor=none;strokeColor=#1B50CC;sketch=1;hachureGap=4;jiggle=2;curveFitting=1;fontFamily=Architects Daughter;fontSource=https%3A%2F%2Ffonts.googleapis.com%2Fcss%3Ffamily%3DArchitects%2BDaughter;" parent="1" vertex="1">
          <mxGeometry x="214.35165908310444" y="121.53846086774556" width="0.17583490728021978" height="0.7032960325807006" as="geometry" />
        </mxCell>
        <mxCell id="7hTBveZVP3QxiGXlwmws-33" value="" style="shape=stencil(lVTLcoMwDPwarjuWZFvxOU3/IzMhDdM0ZAh9/X2hFBpDopncjNi1vNJKhawvh+25LNhd2qZ+LT+rXXso5Klgrk6Hsqna7lTIppD1vm7Kl6Z+P+2G7/O2R/ant/qjv+Fr4IUI5Z7F7nuIJKxWv4HnAX+sTtd4D5UM70Fs4AOSZniBSwZe4WOGd4jG/ZFAaYZ3zsArKL+f4fU+XmUsx4jvCma8f0UQn+GJkaJBUAjlhAQNBiEhhFyBhzMkLDNwGCO3CV3J3SMZlBBz0V0XklGlyIh510jBlu0WNiIPNvocZO5TojFyLwPng0AO3tIg8PIIQbuqzzQwxOr00hphzHmTkBQaH+kDuWlaJkaCM7yRaLT/NP8O6s2BS7mIkMDGQMjC3zrN7E3CQsKVqj9Cd/hfgPvqeBz25/X/+cLsQsOylc0P);fillColor=none;strokeColor=#1B50CC;sketch=1;hachureGap=4;jiggle=2;curveFitting=1;fontFamily=Architects Daughter;fontSource=https%3A%2F%2Ffonts.googleapis.com%2Fcss%3Ffamily%3DArchitects%2BDaughter;" parent="1" vertex="1">
          <mxGeometry x="209.6044117015797" y="129.09890244033312" width="5.8901072072458796" height="7.120874425867102" as="geometry" />
        </mxCell>
        <mxCell id="7hTBveZVP3QxiGXlwmws-34" value="" style="shape=stencil(lVRJbsMwDHyNrwOJ1HpO038EiFMbdePAcbr8vlJduKFdq+iNkmZIcDhixbtrc7jUFanrOPTP9Vt7HJuKHyqi9tzUQzumqOJ9xbtTP9RPQ387H6fz5ZCROXrpX3OG94mnQT6TSH18X2ho/XXzOOG79nyHV1BK4BlebcNX6Qk+bMM9ohbwudzv2SNY/SM9M6yR3SrouE0wAZ5lAYvI2wQboYMgGI983CI4i0CC4CKMKRAcvJQ0JNVcgUCIkhADtC30wDBhoVJ5DiZ5Ruoak9KFrinCW9kEwRRsl4xAkuBCscLaGtbAFSaXBysrGIIteWO2zvwVGFyo4BJhZaaSrCGp7uQg/mharb6npoU5UvCzC05t102r5P59uTvS1bR3eP8J);fillColor=none;strokeColor=#1B50CC;sketch=1;hachureGap=4;jiggle=2;curveFitting=1;fontFamily=Architects Daughter;fontSource=https%3A%2F%2Ffonts.googleapis.com%2Fcss%3Ffamily%3DArchitects%2BDaughter;" parent="1" vertex="1">
          <mxGeometry x="185.80953632955584" y="151.78021709735577" width="4.630037524324667" height="4.74725576547476" as="geometry" />
        </mxCell>
        <mxCell id="7hTBveZVP3QxiGXlwmws-35" value="" style="shape=stencil(fZLdkoMgDIWfhtszkATB6277Hp2pXZm62rF2f95+ddm2oiN3IXwnJOQo3t3q47VSpG9D312qr3AaasVviii0ddWHYYwU7xXvzl1fvffdvT3F8/U4kVP00X1OFb6jzjMsTyrSPzHD8O4vcYh8E9oZXxQgl/AaWm/z1oNkUV/LNi8Gxid8CbLbPAmcSXgimExDZvUAOwhnBEveCoS2+ed/PPiiBGcmdihswnsDzk282lipIZmViYenVGAhuY7o0cBT4LMjGL0aepb6l4zBy4Tn0DTRw/P7pWnHVDQ8738B);fillColor=none;strokeColor=#1B50CC;sketch=1;hachureGap=4;jiggle=2;curveFitting=1;fontFamily=Architects Daughter;fontSource=https%3A%2F%2Ffonts.googleapis.com%2Fcss%3Ffamily%3DArchitects%2BDaughter;" parent="1" vertex="1">
          <mxGeometry x="165.73627178485577" y="144.86446662874886" width="7.472527472527473" height="10.608062185210606" as="geometry" />
        </mxCell>
        <mxCell id="7hTBveZVP3QxiGXlwmws-36" value="" style="shape=stencil(lZTdboMwDIWfJrdWEsf5ue6696hUOtAYVJRu69s3LAojtHjaXTDnS+xjywJ3l/pwroSWl3Ho36uv5jjWAl+E1k1XV0MzxpPAvcDdqR+qt6G/dsf0fT5Myun00X9ON3wnzhBoP1Fa3lJExQj9RF4T0DbdAiAF5ArAglaMXoPHQm9AG/Z+Hwq9BCm39SY+jyu9Z/JHC668HwHDtl4TmLJeJUG5bUBZCCtHAxjmBYXZwDkjCcRYGl+QprQ0NgWZGkz+nQH6w6QAVpeAzzY875rPJc5TgUB2G3AO0JYA71LQYKgAXKzKMy7JeXAy4Xlfg8uNnQELhplVr0CVvga+ERRrXAEEjrEJKfdpBjzgv2Zj4cPznMCWjQgBFDMbD64+ZBQPv+vm1LRt2lbL/+v1FENpteH+Dg==);fillColor=none;strokeColor=#1B50CC;sketch=1;hachureGap=4;jiggle=2;curveFitting=1;fontFamily=Architects Daughter;fontSource=https%3A%2F%2Ffonts.googleapis.com%2Fcss%3Ffamily%3DArchitects%2BDaughter;" parent="1" vertex="1">
          <mxGeometry x="192.37363710508248" y="151.5164815043355" width="4.659343342204671" height="5.186811174665179" as="geometry" />
        </mxCell>
        <mxCell id="7hTBveZVP3QxiGXlwmws-37" value="" style="shape=stencil(lZHdDoMgDIWfprekwhC8du49TMRB5sQg7uftByHZjMQl3p2e9mvSHmD1rNtJAcXZO3tTT9N5DewMlJpRK2d8UMAaYHVvnbo6u4xdqqc2TkZ1t4+44ZW4ApEgRoziO1lf45KAwYwroMzmi5JUfB8QGUAFqcQR4CQJK44ApSDyzw08AyQnvNoH8ptx+6Ugfj/uzTCkiNb9bSbBSnmy5gM=);fillColor=none;strokeColor=#1B50CC;sketch=1;hachureGap=4;jiggle=2;curveFitting=1;fontFamily=Architects Daughter;fontSource=https%3A%2F%2Ffonts.googleapis.com%2Fcss%3Ffamily%3DArchitects%2BDaughter;" parent="1" vertex="1">
          <mxGeometry x="200.72528545673083" y="150.9010962182349" width="0.43956043956043955" height="5.1868145282451925" as="geometry" />
        </mxCell>
        <mxCell id="7hTBveZVP3QxiGXlwmws-38" value="" style="shape=stencil(fZLRbsMgDEW/hlcLbGzguev+o1LTBS1LqjTb2r8fiFULmcKbse8x8rUVHW796dop1Ldlnt6773heekUvCjGOfTfHJUWKjooOl2nu3ubpczyX9/WUlTn6mL5yh3vhNGidIdSPTeK1yIc4ruQekDZyNvtyRMi1ld6C4L7eWrC20hsDoQE4DeQqIH0pYR8IBkgqgBic2weM/mcRtz0K/tnwCQiB54apDoQrwAmwbUxtQEwFeGnaxAxcTx0IrDQWkWz3NeCAGpsmBFO7tDLul0jB3xle4jCUK17Xt2ebUuXk6fgD);fillColor=none;strokeColor=#1B50CC;sketch=1;hachureGap=4;jiggle=2;curveFitting=1;fontFamily=Architects Daughter;fontSource=https%3A%2F%2Ffonts.googleapis.com%2Fcss%3Ffamily%3DArchitects%2BDaughter;" parent="1" vertex="1">
          <mxGeometry x="203.15464924291246" y="147.34020241019653" width="3.3401961179123716" height="10.721649484536083" as="geometry" />
        </mxCell>
        <mxCell id="7hTBveZVP3QxiGXlwmws-39" value="" style="shape=stencil(fZDdDsIgDIWfprekttkTzPkeS8aEDGFh+LO3F1LjcEbvTk/70XKA28X0swbCJcUw6bsdkgE+ApH1RkebsgLugNsxRH2O4eoHqee+TBZ1CbfywkO4A6JCLBjhKtbbOAngrK8AZsX8MU+kSvkLoGa/oPm/4eug6sYXkMX2odE6J3nU/X0A2ZLwuHsC);fillColor=none;strokeColor=#1B50CC;sketch=1;hachureGap=4;jiggle=2;curveFitting=1;fontFamily=Architects Daughter;fontSource=https%3A%2F%2Ffonts.googleapis.com%2Fcss%3Ffamily%3DArchitects%2BDaughter;" parent="1" vertex="1">
          <mxGeometry x="215.1958662210052" y="149.64948327762568" width="0.1649585212628866" height="0.24742205118395622" as="geometry" />
        </mxCell>
        <mxCell id="7hTBveZVP3QxiGXlwmws-40" value="" style="shape=stencil(lZTbboMwDIafhttfdpwT1133HpVKBxorFaU7vP1gbB1ZhiXunOSz9fsQF7K71odLVRi6Dn33XL01x6Eu5KEwpjnXVd8Mo1XIvpDdqeurp767nY/z+XKYyMl66V6nCO+znzPgMHkZ+phvAiR+XTzOfNucF7wE+JjwgkjrvGUIJbz5CfA/L7BpfIIP67yzELeB9w7TW6KHeJ0PgpIT3kGU+JFgJeFLWKU+0SKk+fJYAbPJwYOVDHJFHGCdkjIj2C0OzsOlNeVRpFKkfCiYYZUcTNYFfUqZENOpFohX+GwqRoVW+QVZTQmkdDmvkD510aP0qR6DoLSA6S7gnjHBKJLKrAdOQMrg5T8tBERFU6ZoIfLbYTR+F9Opadt5ry3f/y6y8WpegrL/BA==);fillColor=none;strokeColor=#1B50CC;sketch=1;hachureGap=4;jiggle=2;curveFitting=1;fontFamily=Architects Daughter;fontSource=https%3A%2F%2Ffonts.googleapis.com%2Fcss%3Ffamily%3DArchitects%2BDaughter;" parent="1" vertex="1">
          <mxGeometry x="214.70104099548973" y="153.9793833309842" width="1.8968971488402062" height="6.144333672277707" as="geometry" />
        </mxCell>
        <mxCell id="7hTBveZVP3QxiGXlwmws-41" value="" style="shape=stencil(lVXLcsIwEPuaXDX2rp9nSv+DGULJlBImQB9/X6dpKHaaTXtzHMmWdmW74tV5vznVFanzpWuf67dme9lX/FARNcd93TWXNKp4XfFq13b1U9dej9vh+7Tpkf3opX3tV3gfeEEhUs8i9THMmAgdv2YeB8KhOd4RbECMOcHAqnlCWo9NTtAIwg48kcQORPME7WBsRqAFD+UGRDA8j1dQKsNrWdAUr6HCP/R4WC/4jfBFRcGCHA7QLtcDJ+Ctgw0Z/mboV7wnsC/Wl+z6AMojFMAS3pb1TIJIKJDj0vBCgowF54qsXNLUIcd5y+QaaQOT1ygYKDtPiCCd4aOM1xPPMcVECDW50eGta0r2YAJcnovIICM0To+S/2g6xLJKnuGFaNxJHhnOwmihrgEq75zTYKkRCrogKARhh3SlUt4JJ7uenh+/kO/JBeAXT5DLJQX5QKQ+lfGT74zo4AuCHdPyTUiDn1do1xwOwyN2/798tdLU8OLx+hM=);fillColor=none;strokeColor=#1B50CC;sketch=1;hachureGap=4;jiggle=2;curveFitting=1;fontFamily=Architects Daughter;fontSource=https%3A%2F%2Ffonts.googleapis.com%2Fcss%3Ffamily%3DArchitects%2BDaughter;" parent="1" vertex="1">
          <mxGeometry x="47.97937766792853" y="168.70104256856075" width="6.26804155172761" height="15.25773038569185" as="geometry" />
        </mxCell>
        <mxCell id="7hTBveZVP3QxiGXlwmws-42" value="" style="shape=stencil(lVbRbtswDPwavxISJVHkc9f9R4Gmi7EsKdJsa/9+9Ax5oeXS2Jsj6RQe70hxSA9vx6fXw4Dh7Xa9fD/8Hp9vxyF9GRDH8/FwHW/6NaTHIT28XK6Hb9fLz/Pz/Pv1aTo5ff24/JpueJ9xkSDmCYXhY16hBIn/rnydAafxfAfABJEMIDFIdQAFKFpAgIKfA6btZAAxQykOIAGxAZQW4/b5DEnM+QAhOOcRKP3HeWQI1ZzPQOKcR2CboahJdghHBgoGoIyTB6gQLeNEQI4GUYCKpVCgZIdDBrEcSgRyAJpUXImmV6TPATk0igtA3CxlpWhlIBXeIZ0FsgXUAOwIlztrV2lSbpMmYFttzICOVVVXtNUmuV2xLZxWr/WqSCunbQ5r3WLw3b3sLn+g5nIaRiebRLeau4BYV5z7I7btRQQG9hoSQrY5rbm5fVu12Iy5ALQYPF90OdoJSY0kNiROUByAFhfakHaMVAoE2wFYAB2ZqeOgIUUP0AlXEarDgbR8cV3QXlOqXcvQEhdHuNoJl6QFuQ0IzcoLoLa8bXPQbcthalOOW/V1LTZLubo9hiLUVdtTpZ0s9QBNAzsdQIXDVcX55iNuui4ljS0N22ntzCf6Xjk6cDdk7LhVuplhpxNL14mJ3H+4a4uLEAmC4z5RnVZvaIboCCHdnKHuK05Rc/c67DzrtRscdHgLTki1a65Z7WX8rR//hsuX8XSaZ9P7/fUwqkvzIJse/wA=);fillColor=none;strokeColor=#1B50CC;sketch=1;hachureGap=4;jiggle=2;curveFitting=1;fontFamily=Architects Daughter;fontSource=https%3A%2F%2Ffonts.googleapis.com%2Fcss%3Ffamily%3DArchitects%2BDaughter;" parent="1" vertex="1">
          <mxGeometry x="65.6700983735704" y="175.42269173848263" width="11.752578892658667" height="8.783504840024968" as="geometry" />
        </mxCell>
        <mxCell id="7hTBveZVP3QxiGXlwmws-43" value="" style="shape=stencil(fVPLboQwDPyaXK3EjvM4b7f/sdKyJSqFFUtff19ohEqx8M2xZ+IZWzZ0erSXe2PQPqZxeG0+y3VqDT0ZxNK3zVimOTJ0NnS6DWPzMg7v/bW+75cFuURvw8fyw1flEQHRwkL7XTMWfP5NPFd8V/oNPkCIO7i1x3BeqyucAdMx3O7hjiEo3ws1hOAU9U64ZQIOxwSpKBJ4jSA6pATZKwThIWdApQOJmTqrL8ELRvaQFE2chIkApGiKwnVkIHdMSEJSYLVDlpuLgKwQhAdGdXObKa4Mn8H9G9Mc/B3SrXRdvcNtfX94c6oeLZ1/AA==);fillColor=none;strokeColor=#1B50CC;sketch=1;hachureGap=4;jiggle=2;curveFitting=1;fontFamily=Architects Daughter;fontSource=https%3A%2F%2Ffonts.googleapis.com%2Fcss%3Ffamily%3DArchitects%2BDaughter;" parent="1" vertex="1">
          <mxGeometry x="79.11339828648522" y="173.01719555412376" width="2.474233096407861" height="11.189002597454898" as="geometry" />
        </mxCell>
        <mxCell id="7hTBveZVP3QxiGXlwmws-44" value="" style="shape=stencil(hZLdboMwDIWfJreWsRMSrvvzHkilIyqFitKtffuRRWwYae6d45zPTo5teHdv61tjCO/TOFyar3iaWsN7QxT7thnjNEeGD4Z352FsPsbh0Z/y+VYnZYquw2eq8MycBwwJInzlBDko8SdzzPou9is9AqLQ27Bk/tFbK/TOq/UZClnflxAUfcHgSQAVqQ+iACyBAlElrAMnPaoqIAUoC3DyEyGon/AWvOzgZ98UILjl+ncMpQokU+Qc3sy58sBuY5PaYeXiQmxtnYO/NTzHrstbvL7fru2cyivPh28=);fillColor=none;strokeColor=#1B50CC;sketch=1;hachureGap=4;jiggle=2;curveFitting=1;fontFamily=Architects Daughter;fontSource=https%3A%2F%2Ffonts.googleapis.com%2Fcss%3Ffamily%3DArchitects%2BDaughter;" parent="1" vertex="1">
          <mxGeometry x="83.18212555036513" y="178.51547524363724" width="3.106527951165179" height="5.154640748328769" as="geometry" />
        </mxCell>
        <mxCell id="7hTBveZVP3QxiGXlwmws-45" value="" style="shape=stencil(lVXLUiMxDPyauXZZsuXHGdj/oIpApsgmVMjy+Hs0DAORN1GKm8ejtrulljzEq+f17dNq4PB82O8eV6/j3WE9xOuBedyuV/vxoKsh3gzx6n63Xz3sd/+2d/P30+0UOa3+7l6mE95mHFW0NKE4vM87pSLVz50/M2Azbo8ATKjVAHKGsANgpGIBhBR/A5CAXBxAAGcDSBFBzgNIUC0gFrCjoSE3G59RHEYRrSMk4HY+PiAEq7giBi8+dUVLy87J+IxMJr42sBOvrhBLqBVEcgSXXsEFgAjEUmqE4LiiBLRoNQQUp2aVeg25IWQHwIjW2aJ1d7JUCsRSkojo3KAEyPpCGMHRoARCd4MspTwNIFAnWtwbUgH91//NB4jNkhbOGxgqMbEFNIjTnToe2Iqm8N0gpwvBfX9W7R+ncjWi2DSpvZJzQ2M0sR1dlzl4GlCRbZpYG8JRrUkhmyYiZMdMLYHtmCQUZ8ZUQbOaLyRVh4aVrDPPaVA1d7bnK6HgpGhKuU1RoqUs5xixnRmZ3CLU1Hv1grmb9q810oWpdOTMb0RdWH4hdPHz+t6Pm838eB//719r3Zpf+njzAQ==);fillColor=none;strokeColor=#1B50CC;sketch=1;hachureGap=4;jiggle=2;curveFitting=1;fontFamily=Architects Daughter;fontSource=https%3A%2F%2Ffonts.googleapis.com%2Fcss%3Ffamily%3DArchitects%2BDaughter;" parent="1" vertex="1">
          <mxGeometry x="88.88659290431701" y="174.5979494704414" width="9.360829776095361" height="9.195875974045586" as="geometry" />
        </mxCell>
        <mxCell id="7hTBveZVP3QxiGXlwmws-46" value="" style="shape=stencil(fdLNDoMgDADgp+HaFCoCZ7e9h4k4yZwadX9vPwnJJhq5lcIHoS2jYmrKwTKB0zz2N/ty1dwwOjEhXNfY0c1LxOjMqKj70V7H/tFVYT2U/qSP7v3T3/AODgHRI4GfkOD4S10CaF23Agp0FgFtQGXH5zmBpBgQ5PIYiBxQR0Bx4AmQcSAVAakgN8dAGkARgUwA8cSfJQgTAV8GfQy0BoyrxCVQApjdCzkoSlQVd43btm0J/k2vXduGmVnvb4dkSYUBo/MX);fillColor=none;strokeColor=#1B50CC;sketch=1;hachureGap=4;jiggle=2;curveFitting=1;fontFamily=Architects Daughter;fontSource=https%3A%2F%2Ffonts.googleapis.com%2Fcss%3Ffamily%3DArchitects%2BDaughter;" parent="1" vertex="1">
          <mxGeometry x="67.56700653390789" y="188.9072265625" width="21.030927835051546" height="4.288663569184923" as="geometry" />
        </mxCell>
        <mxCell id="7hTBveZVP3QxiGXlwmws-47" value="" style="shape=stencil(fZLdDoMgDIWfhtumUBS4du49TNRJ5tSo+3v7Qcg2MZG7Uvr1FE4ZFUtXTQ0TuKzzeG2etl47RicmhB26ZrarixiVjIp2nJvLPN6HOpynylf66DY+fIdX4BAQPSTwHRIcf6lzAHo7bIAMiEeAMYDquN6AyuP6DLg8rucGMhEBOgfNjwGSoGMFhaAp8QIBxkSAy6A+Blw/FY/kNDGhoLP9SFwD5olPkiBjBZMUMBpk7AKBTJiwMfUL7F12wX9HWtv3YcW29/udcqmwj1R+AA==);fillColor=none;strokeColor=#1B50CC;sketch=1;hachureGap=4;jiggle=2;curveFitting=1;fontFamily=Architects Daughter;fontSource=https%3A%2F%2Ffonts.googleapis.com%2Fcss%3Ffamily%3DArchitects%2BDaughter;" parent="1" vertex="1">
          <mxGeometry x="69.38143700668496" y="190.22681293290918" width="20.701035961662374" height="5.9381481052673974" as="geometry" />
        </mxCell>
        <mxCell id="7hTBveZVP3QxiGXlwmws-64" value="" style="shape=stencil(lZTdboMwDIWfJrdHSez8XXfde1QqHWgMKkr38/ZLFG0jUCJN4sIx52DHX4igw609XRuh5W2extfmozvPraAnoXU3tM3UzTESdBR0uIxT8zKN9+Gc19dTUqbobXxPX/jMPoJxyaTlV05ojbSMz3PW992w0EtIWegVg3xN70OpN7BhX7/tR0Lbfb2ScKowEIGoYvBwpjAYiVDZgXawvjDYgFCpQAyvC4NnBLdvYAlVVggGXIHAtN6Dkr9gHjssmMoSDlThYDagvf9B+dhgocuenEKotGQZOvwHhGOoFeoIvzImT5BcjilmKiB8WLdE0BV9YNiyQJ1Cmnl5MuKIqod7Q8HB89IQg79f+9L1fb4Zlu/XV0FM5WuEjt8=);fillColor=none;strokeColor=#1B50CC;sketch=1;hachureGap=4;jiggle=2;curveFitting=1;fontFamily=Architects Daughter;fontSource=https%3A%2F%2Ffonts.googleapis.com%2Fcss%3Ffamily%3DArchitects%2BDaughter;" parent="1" vertex="1">
          <mxGeometry x="16.76924015925482" y="219.3538489708534" width="6.892305814302885" height="9.415388840895433" as="geometry" />
        </mxCell>
        <mxCell id="7hTBveZVP3QxiGXlwmws-65" value="" style="shape=stencil(lVbLctswDPwaXXdIgODjnKb/kZk4saaunXHcpP37QtVIMegYTm80zSWAxS7Ege9etw8vm4HC6+l4+LF5Hx9P24G/DUTjfrs5jiddDXw/8N3T4bh5Ph5+7R/n3y8P08lp9fPwNt3we8YlRqAJReHPvCMZNf/b+T4DduP+DEARyQJSQnYAMYOCBRSUeB0gCGwzIlBzAiDahHJGLtfPBwSbTw1g535CafZ8g6Tr5yu4mvMtQoKTvyAnGyChOQVoRiwGUBLEYZS0pR1FCUEcQEWyNasqyItQ0LqmMcQj9SIlEYinO0GxbcuE4EegbFliX9lt4WTtg17h9IGVxK7TxVVSIiSbUgyrGj/3grrNVt0I1TNPXcy4Vt1QHLVmRratVm149swCthFutPoywo0BkAPqfwG06GhZ0pHRnKJVaxx7MRXHEJeAIouAv5hSLZDqFJ1AVn0tLYPtU4CqOXbqI0RH35VB3ZyJ7hSY7qs9S57lVP6l2MYFiFPDmfwXhI7n5iCaTtdubqA6tDb1vKXVN1xdlbYmhOxITymUztL6RXWGhtqR7aRkXna+GOGG3y5L0JjBcKSLjwfB07jbze+J8//7B4RuzY8Pvv8L);fillColor=none;strokeColor=#1B50CC;sketch=1;hachureGap=4;jiggle=2;curveFitting=1;fontFamily=Architects Daughter;fontSource=https%3A%2F%2Ffonts.googleapis.com%2Fcss%3Ffamily%3DArchitects%2BDaughter;" parent="1" vertex="1">
          <mxGeometry x="24.830780029296875" y="220.03077345628003" width="11.01538320688101" height="9.415388840895433" as="geometry" />
        </mxCell>
        <mxCell id="7hTBveZVP3QxiGXlwmws-66" value="" style="shape=stencil(fZHdDoIwDIWfZrdN1zoY14jvQcKQRWRk4N/by1xUwMjd2Wm/tTsTnA9N2RtBOIzenczNVmMjeC+IbNcYb8dJCS4E57Xz5ujdpaviuS9DZ1Bndw033COnQHKACB/RkIiA+LIOEWhtNwM+1TegNejsf78k0LQAUrU5gHeQLAG1vVGigPUCoAxkurES/jxiPWES38Rq27Yx8Hl9nfBkxd/h4gk=);fillColor=none;strokeColor=#1B50CC;sketch=1;hachureGap=4;jiggle=2;curveFitting=1;fontFamily=Architects Daughter;fontSource=https%3A%2F%2Ffonts.googleapis.com%2Fcss%3Ffamily%3DArchitects%2BDaughter;" parent="1" vertex="1">
          <mxGeometry x="33.75386242988782" y="223.9076960637019" width="4.799998747996772" height="1.4769193209134615" as="geometry" />
        </mxCell>
        <mxCell id="7hTBveZVP3QxiGXlwmws-67" value="" style="shape=stencil(lZTbboMwDIafJre/EjvO4brr3qNS6UBjpaJ0h7cfLCpr0MjEXXA+27F/Y8W7a324VIr0dei71+qjOQ614idF1Jzrqm+G8aR4r3h36vrqpe9u52P6vhwmcjq9de9ThM/k50AyOZH+SgZrIeHH8pz4tjmX+NESzQbeRNCW+A6aNuAaWq/jFi5uiE5gmxdLCHGdn5PPzRybU+R9yHjPsAVeYH3GRwPx67wROMq7r8sNonBXc07hIYUnWQObOwSB2EINvMzgBNoVJDbweRFW7n3728HD5CqzAfO6gzfQucM/OntZCk0evvAXBLOcU47whaJDRMhHTxxcoYYHYedhCuDsTePhdw2cmrZNW+Txfrk2RlNaObz/Bg==);fillColor=none;strokeColor=#1B50CC;sketch=1;hachureGap=4;jiggle=2;curveFitting=1;fontFamily=Architects Daughter;fontSource=https%3A%2F%2Ffonts.googleapis.com%2Fcss%3Ffamily%3DArchitects%2BDaughter;" parent="1" vertex="1">
          <mxGeometry x="39.41539588341345" y="224.33846576397235" width="7.876924954927885" height="5.107689490685096" as="geometry" />
        </mxCell>
        <mxCell id="7hTBveZVP3QxiGXlwmws-68" value="" style="shape=stencil(lVXbbsMgDP2avFqADYbnrvuPSk3XaF1Tpdnt70cWLW3w8LQ3Yo5v5zimwc31uLu0jTPXceif2/duPx4bfGic687HdujGfGpw2+Dm0A/t09C/nvfz92U3IafTS/82RfiY/TiAtZOXM5+zxRoI/tvyODucuvOdQ3BgaOWAEEMd70UCBxzreFquf/AGjKnj0ZbxDSSs42/hbvU7quOtwEeIWj2AuOaTwac6XoR3rPIjy8/1KPG5pJMCsKKXTUBrfSmBVwhC0XHOgApDxDDdrVsgRbI8QoH/w1H4TQSrZAgiQ5bdKqwG0QMDWQXvwYcVPoFTVAhiqrMuSUkgOUICdoqDKzvIFlQy0DJnS8v2L52L0YteJVUORiK1aVmSNfq28FROd0pgWBFCOiAYRTkWNUUHUcmQhBC8WCobSeyAPPDaDkjin/b6+CWxhD0XTeTD7U05dKfT/CTd35dvUDbN7xduvwA=);fillColor=none;strokeColor=#1B50CC;sketch=1;hachureGap=4;jiggle=2;curveFitting=1;fontFamily=Architects Daughter;fontSource=https%3A%2F%2Ffonts.googleapis.com%2Fcss%3Ffamily%3DArchitects%2BDaughter;" parent="1" vertex="1">
          <mxGeometry x="59.16666158040363" y="223.16667471991644" width="10" height="12.000001271565754" as="geometry" />
        </mxCell>
        <mxCell id="7hTBveZVP3QxiGXlwmws-69" value="" style="shape=stencil(rVbLcsIwDPyaXDW25OeZ0v9ghlAypYQB+vr7Ks0kJRFRmk5vxuwq9moluaDVZb85lQWay/VcP5fv1fa6L+ihQKyO+/JcXXlV0Lqg1a4+l0/n+vW4bX+fNg2yWb3Ub02Ej5aHFmxqWGg+250ISN8bjy3+UB1v8DZBwgHeQDIKPkLwI7zR8A6iXYK3EMMAH8Ap58/ghuEt4+M0PoIZhicDFqfxHtJQTofglfiui9bhPYGx03gEGsrp+UZO0Wec3mAh+Wl8r/Zf8T4AKvoIvOPzK/mVeE64oqewAznIij7CnsQRFP/wgXxeYggSX2APRs1BHjAvIQTh6RlCFCadI4ii/O8jBZG3OZUIPI0TR0rinGhc7AyrOMPJUjaQwyJCVnujEyr5qDYvL7pR4G6hVGeQBARUCDEBuiX1nATBRaCsNGDhJa4QUo6UZeL0irNGNA0uc1Ka6j1GAqswsrj2jJuyNAc3pqQQsOtbvzRHEjpFC0b5QhKzJ/VFdd8cwk3ZQlaacRAq5di1z/sG74dxP56NPv+dkClnQIVAYiJyarwikxy5fGttpFtxiRQgDhzOi58H2a46HNr33O3/4wccb7WPP1p/AQ==);fillColor=none;strokeColor=#1B50CC;sketch=1;hachureGap=4;jiggle=2;curveFitting=1;fontFamily=Architects Daughter;fontSource=https%3A%2F%2Ffonts.googleapis.com%2Fcss%3Ffamily%3DArchitects%2BDaughter;" parent="1" vertex="1">
          <mxGeometry x="71.2222154405382" y="220.33334859212238" width="9.444452921549479" height="13.833327823215061" as="geometry" />
        </mxCell>
        <mxCell id="7hTBveZVP3QxiGXlwmws-70" value="" style="shape=stencil(lZTZboMwEEW/htcre7zNPKfpf0QKKagUIpJuf18jS23sBFe8mfE9zOppzO7SHc5tQ+pynafX9rM/XrvGPDVE/di1c3+Np8bsG7M7TXP7Mk/v4zF9nw+Lcjm9TR/LH74Sp5WCUgtG6juZSEOS5TkRQz/eEKIgOgM0QYd1gBneZgAj+IqeIC6PCELr+sCweUC/KT3WK1i3Qe8JLq+QheF1vfNgygtkwJUCOQtXJOxBNQ+hrJBV4ArgLULIgOgz2EqNXDkVPkC7StMcyGRAbIuujZGB5nwqPLSpAAz2GSCEUPNwDzj4yiDF62IwJID1lkkVAVU67U35FG7e30PCSNm5f1zoALUpiViTvA9iwbKuv9sXEvdFFlA8/K2bUz8MaVvd3pfrKZrSajP7Hw==);fillColor=none;strokeColor=#1B50CC;sketch=1;hachureGap=4;jiggle=2;curveFitting=1;fontFamily=Architects Daughter;fontSource=https%3A%2F%2Ffonts.googleapis.com%2Fcss%3Ffamily%3DArchitects%2BDaughter;" parent="1" vertex="1">
          <mxGeometry x="89.22222052680121" y="222.7777896457248" width="4.8888905843098955" height="7.611109415690104" as="geometry" />
        </mxCell>
        <mxCell id="7hTBveZVP3QxiGXlwmws-71" value="" style="shape=stencil(jZPdbsIwDIWfJreWHef3mrH3QKKs0boWlbKNtyddBMNljXbnpv4S+xxb8ebU7o6N0niaxuG9+Ur7qVX8orROfduMacqR4q3izWEYm7dxOPf78n3czZlz9DF8zjd8Fy4GCG6mNF7KiSaw9ufktQBd6h8AZvAkAPbgzDqgLSAKwHgwtA7gMt/lJ+N6PgEZke8jcOV+D9GK/MhAWGkAwUiA8F7j3xqFmyL/JRwBSxtCLpPXgYDgglQpVLuIBlhLGxiir8iKT0ZkJVzFiFnHRU2AlR7802TURbJ8m5t7C1WjWS+dJgtWV1o24L2cbYIoKsrB7yodUteVTXz8v1y9fFTWlrdX);fillColor=none;strokeColor=#1B50CC;sketch=1;hachureGap=4;jiggle=2;curveFitting=1;fontFamily=Architects Daughter;fontSource=https%3A%2F%2Ffonts.googleapis.com%2Fcss%3Ffamily%3DArchitects%2BDaughter;" parent="1" vertex="1">
          <mxGeometry x="95.05555809868702" y="223.94446182250977" width="4.888882107204861" height="6.444435119628906" as="geometry" />
        </mxCell>
        <mxCell id="7hTBveZVP3QxiGXlwmws-72" value="" style="shape=stencil(hVTLcoMwDPwarhpbkl/nNP2PzIQ0TFPIEPr6+5oy0GA14mbLK89qtVJFu9v5cK0rNLeh717rz+Y4nCt6qhCb9lz3zZBPFe0r2p26vn7pu/f2ON2vhxE5nt66j/GHrymPLDCNWWi+p4gBY34DzxP+0rR3eEuQzAq/BP7HG8C0wlsEVBKwxGMAwsf4he6M5zj/8ADvwgrvA0SFD5X6xByxj/Gx5JMQfFQEYoh+ncDgSRFIKBQTBK9UIFoQMkmnJHihUSap1MBCVEfgFUosVGUPUSmaWbTZA7GS4MDympIFVHw0Elj3weuTwKLTwUJQnMFpfl4ax0CKVR2Wsm5Yw4nGWaMX4VG4T/dGEPtiw31RDGjILJWqYxTuM5AU9yUxQc5AUGRKsRyIDTPdqbhklFsjH/527Km5XKYVff9e7uQcmvY57X8A);fillColor=none;strokeColor=#1B50CC;sketch=1;hachureGap=4;jiggle=2;curveFitting=1;fontFamily=Architects Daughter;fontSource=https%3A%2F%2Ffonts.googleapis.com%2Fcss%3Ffamily%3DArchitects%2BDaughter;" parent="1" vertex="1">
          <mxGeometry x="101.94444359673389" y="219.7777845594618" width="9.72222646077474" height="11.388895246717665" as="geometry" />
        </mxCell>
        <mxCell id="7hTBveZVP3QxiGXlwmws-73" value="" style="shape=stencil(lZVNctswDIVPo+0bkCD4s06Te2QmTqypa2ccJ21vX6gqFUO2kelOpvmRAN4DOPDd2/bxdTNEejsdD983P8en03bgb0OM4367OY4n/Rr4fuC758Nx83I8vO+f5t+vj9PO6evH4WM64dfMhYCUJirS73mlNHD5u/IwA7txfwbECMoGyHoEO0ACVwOIIAcHKKj2hqRHNAfIqMUAXCFeDqGftwAZHG8DgXuKC9CQ8m1A0GxEqUCcIhGIbFEJzUmZIHZ/EZR6e3/p0fb9tYKTUyG93l7QclflKpAIfAEkR2WpKMECmpSXAiNbDWpAcFSuDLLGyw3ihKSA1LUK5KhQSjfyYm0GO1XKClgdRHNwjCcZMVogIXo6ZBTrvBzBjvNSQLG9oIUWxxoproGaUMQBVGmbdAtoTkhqjbiyRuwz5LoOhCw2JOkr15WOXdclaUKi24BGTHZMfiFcKyCbA2tLOWUNdDEDpqnjJNFqd3MHIrLj1qb9YBtoufF6kaQP0cVKiJ4KFWEVDyH4HR3+a6peAl+MSW3QVUgaZHNkuzSGKp+cHGoDWeudCfmP0I/P5/d53O3m1/v8//VzrUvzU8/3fwA=);fillColor=none;strokeColor=#1B50CC;sketch=1;hachureGap=4;jiggle=2;curveFitting=1;fontFamily=Architects Daughter;fontSource=https%3A%2F%2Ffonts.googleapis.com%2Fcss%3Ffamily%3DArchitects%2BDaughter;" parent="1" vertex="1">
          <mxGeometry x="112.61110432942712" y="219.0555648803711" width="11.166674296061197" height="12.388894822862413" as="geometry" />
        </mxCell>
        <mxCell id="7hTBveZVP3QxiGXlwmws-74" value="" style="shape=stencil(lZLbDoMgDIafhtsGWhW5du49TNRJ5tSoO739IOwgLpJ415b/65/SMsqmphgqhnyax/5c3XU5N4wODFF3TTXq2USMckZZ3Y/VaeyvXenyobBKG136m+3wcBwHzi2E/LkqHJ281d1CLgEjT44INt3SCwEJ+UAcNEABUngAERBtAxQByT1AzIHUHiBJPyN+AQlxYIaUIEo8IIohDTgoM4PvkGDQQfC/vUkFQu4ilNlNgFApCP+fFj3ehAl+h1XrtnV3uXxfH6IpuSOm/AU=);fillColor=none;strokeColor=#1B50CC;sketch=1;hachureGap=4;jiggle=2;curveFitting=1;fontFamily=Architects Daughter;fontSource=https%3A%2F%2Ffonts.googleapis.com%2Fcss%3Ffamily%3DArchitects%2BDaughter;" parent="1" vertex="1">
          <mxGeometry x="90.77777777777777" y="240.6666768391927" width="21.499994066026474" height="1.3333299424913194" as="geometry" />
        </mxCell>
        <mxCell id="7hTBveZVP3QxiGXlwmws-75" value="" style="shape=stencil(lZLbDoIwDIafZrfN1sIO16jvQQLIIgIBPL29LEuUYZxy13X91vXvzygb67wvGfJxGrpTebPFVDPaMUTb1uVgpzlitGeUVd1QHofu0hb+3Oeu0kXn7upeuHuOA+cOQv7wCcFfqYMHGtsuAAOpDAApQarv9UJCYkIAIY00IA4aAyCN/yhRQCIASEU7yAS0CgBMox00BwxnEPEZjIAklPWHqGotUrx+saR/f2QA9ZaZjQSltqhqCEy4ho+9zcHbh5VtGm/j5f3at3PKe572Tw==);fillColor=none;strokeColor=#1B50CC;sketch=1;hachureGap=4;jiggle=2;curveFitting=1;fontFamily=Architects Daughter;fontSource=https%3A%2F%2Ffonts.googleapis.com%2Fcss%3Ffamily%3DArchitects%2BDaughter;" parent="1" vertex="1">
          <mxGeometry x="94.33332994249133" y="247.55556233723956" width="15.500000847710503" height="0.4444630940755208" as="geometry" />
        </mxCell>
        <mxCell id="WdQiJ19SZQq-4EjQIpC9-1" value="think and solve the rest&lt;div&gt;&lt;br&gt;&lt;/div&gt;" style="text;strokeColor=none;align=center;fillColor=none;html=1;verticalAlign=middle;whiteSpace=wrap;rounded=0;" parent="1" vertex="1">
          <mxGeometry x="450" y="192.78" width="60" height="30" as="geometry" />
        </mxCell>
        <mxCell id="WdQiJ19SZQq-4EjQIpC9-2" value="f" style="text;strokeColor=none;align=center;fillColor=none;html=1;verticalAlign=middle;whiteSpace=wrap;rounded=0;" parent="1" vertex="1">
          <mxGeometry x="310" y="90" width="60" height="30" as="geometry" />
        </mxCell>
      </root>
    </mxGraphModel>
  </diagram>
</mxfile>
